<svg width="101" height="40" viewBox="0 0 101 40" fill="none" xmlns="http://www.w3.org/2000/svg">
<g clip-path="url(#clip0_52_141)">
<g clip-path="url(#clip1_52_141)">
<path fill-rule="evenodd" clip-rule="evenodd" d="M6.57393 36.5555C5.33531 36.5555 4.71502 35.9445 4.71502 34.9398C4.71502 33.0763 6.80019 32.4403 10.6059 32.0356C10.6059 34.5284 8.92047 36.5555 6.57393 36.5555V36.5555ZM8.21493 22.5305C5.49598 22.5305 2.36709 23.8117 0.668872 25.1652L2.2201 28.4295C3.58218 27.1839 5.78403 26.1182 7.77044 26.1182C9.65792 26.1182 10.7001 26.7494 10.7001 28.0203C10.7001 28.8756 10.0095 29.308 8.70436 29.4776C3.82637 30.1107 3.05176e-05 31.4573 3.05176e-05 35.2169C3.05176e-05 38.1977 2.12291 40.0001 5.43809 40.0001C7.80323 40.0001 9.90981 38.6855 10.9111 36.9507V39.5151H15.3207V28.7697C15.3207 24.3329 12.2358 22.5305 8.21493 22.5305V22.5305Z" fill="white" fill-opacity="0.6"/>
<path fill-rule="evenodd" clip-rule="evenodd" d="M52.4903 23.0157V39.515H57.2096V31.5646C57.2096 27.7863 59.4972 26.6771 61.0917 26.6771C61.8086 26.6708 62.5112 26.8785 63.1095 27.2736L63.9687 22.9115C63.2967 22.6433 62.5775 22.5136 61.8542 22.5303C59.4279 22.5303 57.9028 23.6048 56.8976 25.7887V23.0157H52.4903Z" fill="white" fill-opacity="0.6"/>
<path fill-rule="evenodd" clip-rule="evenodd" d="M85.8485 22.5304C83.3529 22.5304 81.487 24.0061 80.5164 25.4273C79.6151 23.5901 77.705 22.5304 75.417 22.5304C72.9213 22.5304 71.1939 23.9169 70.3968 25.5115V23.0156H65.8484V39.5149H70.57V31.0227C70.57 27.9724 72.1671 26.5101 73.6577 26.5101C75.0065 26.5101 76.2463 27.3832 76.2463 29.636V39.515H80.9621V31.0227C80.9621 27.9378 82.5209 26.5101 84.0807 26.5101C85.3286 26.5101 86.6449 27.4177 86.6449 29.6015V39.5149H91.3599V28.111C91.3599 24.4021 88.864 22.5304 85.8485 22.5304" fill="white" fill-opacity="0.6"/>
<path fill-rule="evenodd" clip-rule="evenodd" d="M41.0023 23.0157H36.7267V21.338C36.7267 19.1544 37.9729 18.5305 39.0475 18.5305C39.7832 18.5385 40.5068 18.719 41.1602 19.0572L42.6153 15.7299C42.6153 15.7299 41.1409 14.766 38.4581 14.766C35.4427 14.766 32.011 16.4648 32.011 21.8025V23.0157H24.8535V21.338C24.8535 19.1544 26.0998 18.5305 27.1744 18.5305C27.9113 18.5298 28.6369 18.7107 29.2871 19.0572L30.7422 15.7299C29.8734 15.2207 28.4776 14.766 26.585 14.766C23.5695 14.766 20.1378 16.4648 20.1378 21.8025V23.0157H17.3997V26.6552H20.1377V39.515H24.8535V26.6552H32.011V39.515H36.7268V26.6552H41.0024V23.0157" fill="white" fill-opacity="0.6"/>
<path d="M48.5282 23.0157H43.817V39.515H48.5282V23.0157Z" fill="white" fill-opacity="0.6"/>
<path fill-rule="evenodd" clip-rule="evenodd" d="M43.9909 20.2102H48.6067C51.2988 11.7459 60.4343 4.31366 71.3029 4.31366C84.5152 4.31366 95.9321 14.3713 95.9321 30.03C95.9684 33.2397 95.5242 36.4368 94.6142 39.515H99.0935L99.1379 39.3608C99.8929 36.3085 100.265 33.1742 100.246 30.03C100.246 12.5682 87.522 0 71.3029 0C58.5641 0 47.2124 8.84168 43.9909 20.2102Z" fill="white" fill-opacity="0.6"/>
</g>
</g>
<defs>
<clipPath id="clip0_52_141">
<rect width="101" height="40" fill="white"/>
</clipPath>
<clipPath id="clip1_52_141">
<rect width="100.246" height="40" fill="white"/>
</clipPath>
</defs>
</svg>
