<svg xmlns:xlink="http://www.w3.org/1999/xlink" xmlns:inkscape="http://www.inkscape.org/namespaces/inkscape" xmlns:sodipodi="http://sodipodi.sourceforge.net/DTD/sodipodi-0.dtd" xmlns="http://www.w3.org/2000/svg" xmlns:svg="http://www.w3.org/2000/svg" version="1.1" id="图层_1" x="0px" y="0px" width="300" height="300" viewBox="0 0 250 250" enable-background="new 0 0 612 792" xml:space="preserve" sodipodi:docname="简化标志 [转换].svg" inkscape:version="1.2 (dc2aedaf03, 2022-05-15)"><defs id="defs1295"/><sodipodi:namedview id="namedview1293" pagecolor="#ffffff" bordercolor="#000000" borderopacity="0.25" inkscape:showpageshadow="2" inkscape:pageopacity="0.0" inkscape:pagecheckerboard="0" inkscape:deskcolor="#d1d1d1" showgrid="false" inkscape:zoom="2" inkscape:cx="123.5" inkscape:cy="133.5" inkscape:window-width="1680" inkscape:window-height="979" inkscape:window-x="-8" inkscape:window-y="-8" inkscape:window-maximized="1" inkscape:current-layer="图层_1"/>
<g id="g4" transform="matrix(0.92958228,0,0,0.92958228,-145.65718,-55.715444)">
	<path fill="#004ea2" d="m 221.746,125.424 c -18.286,18.281 -28.357,42.602 -28.357,68.453 0,53.388 43.442,96.805 96.815,96.805 53.373,0 96.814,-43.417 96.814,-96.805 0,-53.373 -43.441,-96.805 -96.814,-96.805 -25.866,-0.001 -50.182,10.066 -68.458,28.352 z m -23.808,68.452 c 0,-24.643 9.599,-47.812 27.024,-65.236 17.415,-17.425 40.583,-27.034 65.241,-27.034 50.873,0 92.255,41.399 92.255,92.27 0,50.871 -41.383,92.26 -92.255,92.26 -50.87,10e-4 -92.265,-41.388 -92.265,-92.26 z" id="path2"/>
</g>
<g id="g8" transform="matrix(0.92958228,0,0,0.92958228,-145.65718,-55.715444)">
	<path fill="#004ea2" d="m 156.691,194.42 c 0,74.146 60.319,134.464 134.474,134.464 74.146,0 134.464,-60.318 134.464,-134.464 0,-74.156 -60.318,-134.484 -134.464,-134.484 -74.155,0 -134.474,60.329 -134.474,134.484 z m 6.82,0 c 0,-70.391 57.263,-127.654 127.654,-127.654 70.38,0 127.634,57.264 127.634,127.654 0,70.38 -57.254,127.634 -127.634,127.634 -70.391,0 -127.654,-57.253 -127.654,-127.634 z" id="path6"/>
</g>
<g id="g56" transform="matrix(0.92958228,0,0,0.92958228,-145.65718,-55.715444)">
	<path fill="#004ea2" d="m 193.252,268.439 -5.471,-8.32 c -0.916,-1.389 -1.268,-2.672 -1.067,-3.871 0.196,-1.192 0.805,-2.119 1.812,-2.783 0.866,-0.559 1.762,-0.791 2.708,-0.649 0.639,0.09 1.304,0.388 1.988,0.916 -0.438,-1.203 -0.498,-2.245 -0.216,-3.125 0.277,-0.881 0.866,-1.631 1.802,-2.235 0.734,-0.483 1.515,-0.745 2.34,-0.791 0.831,-0.045 1.61,0.116 2.361,0.473 0.453,0.241 0.971,0.705 1.57,1.394 0.785,0.906 1.293,1.53 1.51,1.848 l 5.038,7.686 z m 2.688,-8.204 -1.263,-1.923 c -0.463,-0.689 -0.906,-1.102 -1.309,-1.218 -0.422,-0.106 -0.851,-0.021 -1.303,0.276 -0.423,0.267 -0.66,0.619 -0.715,1.062 -0.061,0.408 0.131,0.967 0.589,1.636 l 1.283,1.968 z m 5.653,-3.714 -1.485,-2.255 c -0.499,-0.77 -0.997,-1.223 -1.47,-1.359 -0.478,-0.136 -0.946,-0.044 -1.409,0.253 -0.418,0.281 -0.669,0.654 -0.715,1.142 -0.055,0.489 0.171,1.108 0.68,1.892 l 1.49,2.24 z" id="path10"/>
	<path fill="#004ea2" d="m 180.665,247.512 -5.36,-13.208 3.402,-1.385 3.352,8.275 2.537,-1.037 -3.116,-7.665 3.251,-1.319 3.121,7.661 3.136,-1.268 -3.458,-8.506 3.614,-1.465 5.461,13.439 z" id="path12"/>
	<path fill="#004ea2" d="m 173.074,226.301 -1.249,-5.185 16.726,-4.047 1.253,5.19 z" id="path14"/>
	<path fill="#004ea2" d="m 169.46,205.397 -0.488,-5.314 9.327,-0.847 c 1.948,-0.195 3.453,-0.15 4.505,0.102 1.057,0.251 1.983,0.875 2.788,1.862 0.806,0.971 1.279,2.285 1.44,3.916 0.161,1.721 0.045,3.096 -0.327,4.082 -0.377,0.997 -0.997,1.802 -1.847,2.4 -0.861,0.6 -1.938,1.007 -3.252,1.224 l -1.167,-4.998 c 0.76,-0.081 1.313,-0.192 1.666,-0.353 0.362,-0.156 0.634,-0.403 0.835,-0.709 0.125,-0.217 0.171,-0.514 0.151,-0.896 -0.07,-0.589 -0.317,-0.996 -0.795,-1.233 -0.462,-0.242 -1.223,-0.308 -2.265,-0.216 z" id="path16"/>
	<path fill="#004ea2" d="m 169.063,191.466 0.282,-5.315 17.174,0.906 -0.267,5.325 z" id="path18"/>
	<path fill="#004ea2" d="m 170.12,177.02 1.062,-4.852 10.696,-4.273 -9.292,-2.059 1.077,-4.882 16.801,3.714 -1.072,4.883 -10.62,4.263 9.226,2.024 -1.083,4.897 z" id="path20"/>
	<path fill="#004ea2" d="m 190.343,148.546 -3.256,-1.51 3.438,-7.454 6.669,3.075 c 0.317,1.867 0.397,3.428 0.241,4.701 -0.161,1.258 -0.583,2.653 -1.273,4.143 -0.851,1.862 -1.867,3.221 -3.045,4.107 -1.168,0.881 -2.527,1.349 -4.067,1.415 -1.55,0.065 -3.136,-0.283 -4.761,-1.022 -1.697,-0.78 -3.025,-1.822 -3.966,-3.09 -0.926,-1.294 -1.409,-2.764 -1.449,-4.42 -0.005,-1.293 0.387,-2.833 1.228,-4.625 0.79,-1.742 1.54,-2.945 2.25,-3.669 0.705,-0.705 1.52,-1.203 2.426,-1.449 0.92,-0.272 1.948,-0.307 3.095,-0.137 l -1.313,5.054 c -0.685,-0.081 -1.283,0.035 -1.802,0.337 -0.523,0.316 -0.951,0.841 -1.278,1.54 -0.488,1.067 -0.498,2.079 -0.061,3.035 0.443,0.981 1.46,1.828 3.061,2.567 1.686,0.78 3.035,1.016 4.057,0.709 1.017,-0.301 1.792,-1.032 2.31,-2.159 0.247,-0.533 0.408,-1.087 0.483,-1.646 0.061,-0.573 0.045,-1.248 -0.03,-2.063 l -1.47,-0.68 z" id="path22"/>
	<path fill="#004ea2" d="m 195.754,118.68 3.367,-3.645 11.385,1.687 -7.001,-6.443 3.397,-3.684 12.659,11.646 -3.397,3.695 -11.32,-1.671 6.951,6.402 -3.393,3.674 z" id="path24"/>
	<path fill="#004ea2" d="m 218.575,107.657 c -1.611,-2.291 -2.22,-4.54 -1.837,-6.72 0.373,-2.185 1.722,-4.067 4.012,-5.663 2.345,-1.641 4.59,-2.28 6.74,-1.902 2.154,0.362 4.017,1.687 5.612,3.951 1.152,1.656 1.822,3.196 2.003,4.636 0.186,1.439 -0.045,2.818 -0.679,4.137 -0.635,1.334 -1.747,2.537 -3.308,3.624 -1.59,1.107 -3.08,1.777 -4.474,2.003 -1.404,0.231 -2.814,0.01 -4.218,-0.619 -1.415,-0.649 -2.694,-1.791 -3.851,-3.447 z m 4.374,-3.026 c 0.982,1.419 1.968,2.255 2.935,2.517 0.961,0.247 1.903,0.055 2.809,-0.579 0.941,-0.66 1.45,-1.47 1.53,-2.436 0.09,-0.961 -0.418,-2.245 -1.52,-3.831 -0.926,-1.309 -1.877,-2.094 -2.834,-2.335 -0.971,-0.236 -1.912,-0.03 -2.818,0.604 -0.881,0.614 -1.369,1.419 -1.47,2.421 -0.097,0.992 0.356,2.2 1.368,3.639 z" id="path26"/>
	<path fill="#004ea2" d="m 242.936,101.984 -6.719,-15.85 8.159,-3.458 c 1.515,-0.649 2.728,-1.006 3.634,-1.087 0.906,-0.081 1.757,0.13 2.547,0.624 0.78,0.493 1.394,1.253 1.827,2.25 0.362,0.886 0.498,1.736 0.393,2.527 -0.101,0.795 -0.393,1.52 -0.896,2.2 -0.302,0.428 -0.78,0.881 -1.435,1.349 0.654,-0.045 1.167,-0.025 1.52,0.056 0.221,0.045 0.609,0.227 1.133,0.503 0.518,0.267 0.896,0.503 1.112,0.689 l 4.303,3.588 -5.531,2.346 -4.666,-3.74 c -0.604,-0.488 -1.067,-0.755 -1.404,-0.846 -0.468,-0.095 -0.921,-0.045 -1.359,0.146 l -0.433,0.182 2.718,6.432 z m 0.917,-11.516 2.063,-0.881 c 0.226,-0.08 0.619,-0.337 1.198,-0.76 0.307,-0.207 0.498,-0.473 0.594,-0.841 0.096,-0.337 0.065,-0.7 -0.085,-1.042 -0.211,-0.518 -0.543,-0.835 -0.981,-0.971 -0.443,-0.136 -1.112,-0.025 -2.008,0.362 l -2.144,0.906 z" id="path28"/>
	<path fill="#004ea2" d="m 259.319,77.245 6.886,-1.268 4.545,9.81 0.75,-10.781 6.85,-1.268 3.131,16.921 -4.283,0.786 -2.381,-12.905 -0.931,13.509 -3.86,0.72 -5.688,-12.301 2.38,12.916 -4.288,0.78 z" id="path30"/>
	<path fill="#004ea2" d="m 297.995,88.057 -6.045,-0.247 -0.966,2.804 -5.416,-0.211 7.137,-16.937 5.804,0.227 5.772,17.46 -5.546,-0.231 z m -0.961,-3.76 -1.65,-6.267 -2.145,6.105 z" id="path32"/>
	<path fill="#004ea2" d="m 312.295,75.257 5.18,1.198 -2.959,12.644 8.082,1.883 -0.967,4.122 -13.266,-3.105 z" id="path34"/>
	<path fill="#004ea2" d="m 354.227,91.344 4.602,2.662 -5.145,8.869 c -0.508,0.886 -1.123,1.636 -1.846,2.27 -0.727,0.619 -1.557,1.062 -2.482,1.309 -0.928,0.242 -1.777,0.297 -2.563,0.161 -1.088,-0.182 -2.25,-0.644 -3.514,-1.369 -0.709,-0.423 -1.469,-0.921 -2.285,-1.52 -0.795,-0.604 -1.393,-1.213 -1.793,-1.842 -0.406,-0.639 -0.678,-1.364 -0.84,-2.215 -0.154,-0.825 -0.154,-1.585 0.016,-2.275 0.262,-1.112 0.6,-2.038 1.031,-2.763 l 5.145,-8.889 4.586,2.658 -5.27,9.095 c -0.459,0.815 -0.6,1.576 -0.414,2.3 0.193,0.725 0.676,1.304 1.48,1.767 0.795,0.453 1.539,0.589 2.244,0.413 0.711,-0.206 1.314,-0.704 1.793,-1.545 z" id="path36"/>
	<path fill="#004ea2" d="m 366.588,99.684 3.672,3.337 -1.613,11.4 6.408,-7.037 3.699,3.367 -11.566,12.724 -3.715,-3.367 1.596,-11.32 -6.357,6.996 -3.689,-3.372 z" id="path38"/>
	<path fill="#004ea2" d="m 384.588,117.653 3.303,4.192 -13.496,10.645 -3.313,-4.167 z" id="path40"/>
	<path fill="#004ea2" d="m 392.35,127.553 2.713,4.863 -8.91,9.427 12.668,-2.724 2.645,4.701 -18.141,2.85 -2.809,-5.034 z" id="path42"/>
	<path fill="#004ea2" d="m 404.238,150.822 4.439,13.535 -3.488,1.147 -2.789,-8.471 -2.592,0.851 2.582,7.852 -3.332,1.097 -2.598,-7.852 -3.215,1.057 2.877,8.707 -3.703,1.229 -4.529,-13.781 z" id="path44"/>
	<path fill="#004ea2" d="m 393.568,175.229 17.082,-2.084 1.061,8.813 c 0.197,1.621 0.207,2.878 0.041,3.785 -0.186,0.881 -0.613,1.656 -1.303,2.265 -0.695,0.625 -1.59,0.996 -2.678,1.137 -0.951,0.106 -1.787,0.005 -2.518,-0.322 -0.748,-0.316 -1.367,-0.79 -1.877,-1.449 -0.316,-0.427 -0.635,-1.016 -0.896,-1.777 -0.135,0.659 -0.297,1.143 -0.461,1.46 -0.117,0.201 -0.391,0.523 -0.791,0.951 -0.414,0.423 -0.752,0.705 -0.982,0.861 l -4.641,3.15 -0.73,-5.958 4.873,-3.444 c 0.635,-0.453 1.041,-0.82 1.213,-1.123 0.217,-0.417 0.297,-0.86 0.242,-1.348 l -0.07,-0.464 -6.92,0.851 z m 10.791,4.066 0.285,2.234 c 0.021,0.222 0.158,0.674 0.398,1.359 0.111,0.342 0.313,0.6 0.635,0.795 0.316,0.176 0.664,0.248 1.025,0.212 0.561,-0.08 0.957,-0.292 1.205,-0.68 0.275,-0.382 0.326,-1.052 0.215,-2.028 l -0.287,-2.31 z" id="path46"/>
	<path fill="#004ea2" d="m 401.203,195.679 -0.07,5.063 c -0.826,0.046 -1.475,0.227 -1.914,0.534 -0.734,0.489 -1.156,1.233 -1.221,2.255 -0.072,0.75 0.064,1.364 0.396,1.792 0.326,0.443 0.719,0.679 1.188,0.709 0.443,0.041 0.855,-0.136 1.232,-0.493 0.389,-0.353 0.797,-1.239 1.205,-2.643 0.697,-2.285 1.514,-3.901 2.469,-4.812 0.926,-0.936 2.086,-1.348 3.42,-1.248 0.885,0.065 1.699,0.383 2.451,0.961 0.744,0.569 1.297,1.379 1.66,2.446 0.379,1.058 0.488,2.472 0.354,4.258 -0.162,2.2 -0.705,3.831 -1.602,4.917 -0.902,1.103 -2.252,1.676 -4.043,1.772 l 0.092,-5.018 c 0.77,-0.085 1.363,-0.307 1.746,-0.714 0.373,-0.388 0.598,-0.976 0.658,-1.722 0.047,-0.614 -0.049,-1.087 -0.297,-1.419 -0.225,-0.327 -0.547,-0.509 -0.916,-0.533 -0.262,-0.02 -0.521,0.08 -0.766,0.321 -0.246,0.222 -0.496,0.812 -0.764,1.732 -0.686,2.275 -1.318,3.905 -1.891,4.861 -0.59,0.972 -1.281,1.651 -2.076,2.059 -0.789,0.387 -1.656,0.543 -2.582,0.478 -1.102,-0.081 -2.107,-0.453 -2.98,-1.132 -0.885,-0.686 -1.518,-1.586 -1.916,-2.723 -0.408,-1.133 -0.543,-2.512 -0.408,-4.188 0.227,-2.924 0.932,-4.897 2.139,-5.939 1.213,-1.031 2.69,-1.56 4.436,-1.574 z" id="path48"/>
	<path fill="#004ea2" d="m 409.926,219.894 -1.199,5.174 -16.77,-3.886 1.197,-5.189 z" id="path50"/>
	<path fill="#004ea2" d="m 406.84,232.501 -5.98,15.01 -3.945,-1.561 2,-5.033 -12.035,-4.802 1.963,-4.943 12.039,4.797 2.008,-5.043 z" id="path52"/>
	<path fill="#004ea2" d="m 398.027,253.305 -3.197,4.962 -6.764,-0.231 3.004,6.065 -3.18,4.938 -4.793,-11.049 -6.055,-3.896 2.904,-4.474 6.051,3.891 z" id="path54"/>
</g>
<g id="g66" transform="matrix(0.92958228,0,0,0.92958228,-145.65718,-55.715444)">
	<path fill="#004ea2" d="m 266.567,295.151 c -0.866,5.919 -1.731,11.838 -2.597,17.752 -1.817,-0.267 -3.639,-0.559 -5.451,-0.875 0.679,-3.86 1.358,-7.722 2.038,-11.587 -0.931,0.463 -1.817,0.795 -2.678,1.026 -0.845,0.218 -1.893,0.383 -3.121,0.473 0.272,-1.308 0.539,-2.616 0.811,-3.925 1.797,-0.187 3.231,-0.574 4.308,-1.147 1.062,-0.559 1.948,-1.354 2.653,-2.356 1.345,0.232 2.694,0.443 4.037,0.639 z" id="path58"/>
	<path fill="#004ea2" d="m 273.231,310.044 c 1.777,-0.03 3.554,-0.085 5.32,-0.16 0.101,0.694 0.297,1.188 0.615,1.495 0.297,0.292 0.699,0.473 1.188,0.503 0.851,0.05 1.545,-0.322 2.059,-1.087 0.377,-0.575 0.705,-1.797 0.951,-3.68 -0.649,0.559 -1.313,0.982 -1.998,1.213 -0.674,0.242 -1.444,0.343 -2.311,0.283 -1.701,-0.116 -3.095,-0.795 -4.137,-2.023 -1.067,-1.219 -1.48,-2.693 -1.309,-4.404 0.121,-1.163 0.513,-2.189 1.168,-3.1 0.649,-0.906 1.49,-1.565 2.506,-1.958 1.017,-0.413 2.255,-0.569 3.74,-0.479 1.756,0.106 3.171,0.464 4.218,1.113 1.057,0.649 1.902,1.625 2.526,2.969 0.625,1.329 0.937,3.086 0.907,5.246 -0.051,3.18 -0.816,5.511 -2.326,6.951 -1.51,1.439 -3.613,2.099 -6.256,1.943 -1.544,-0.096 -2.763,-0.347 -3.628,-0.735 -0.881,-0.387 -1.585,-0.94 -2.114,-1.615 -0.525,-0.673 -0.907,-1.498 -1.119,-2.475 z m 10.132,-7.146 c 0.046,-0.952 -0.176,-1.722 -0.634,-2.281 -0.468,-0.579 -1.052,-0.871 -1.757,-0.911 -0.669,-0.041 -1.228,0.166 -1.701,0.619 -0.478,0.468 -0.75,1.167 -0.826,2.148 -0.07,0.987 0.101,1.762 0.534,2.316 0.428,0.553 1.006,0.85 1.716,0.896 0.715,0.04 1.344,-0.181 1.847,-0.659 0.5,-0.493 0.781,-1.198 0.821,-2.128 z" id="path60"/>
	<path fill="#004ea2" d="m 293.45,305.998 c -0.03,-3.357 0.583,-5.698 1.777,-7.052 1.208,-1.385 3.025,-2.089 5.501,-2.22 1.183,-0.065 2.17,0.005 2.966,0.257 0.784,0.241 1.438,0.563 1.962,1.001 0.513,0.413 0.951,0.875 1.273,1.369 0.323,0.499 0.61,1.082 0.856,1.747 0.447,1.273 0.75,2.637 0.881,4.057 0.307,3.182 -0.035,5.566 -1.104,7.147 -1.06,1.58 -3.08,2.486 -6.019,2.642 -1.652,0.09 -2.99,-0.095 -4.012,-0.533 -1.032,-0.448 -1.873,-1.123 -2.537,-2.023 -0.468,-0.635 -0.845,-1.526 -1.122,-2.653 -0.261,-1.107 -0.407,-2.36 -0.422,-3.739 z m 5.149,-0.106 c 0.086,2.24 0.363,3.77 0.826,4.57 0.467,0.811 1.108,1.203 1.933,1.158 0.527,-0.031 0.991,-0.232 1.364,-0.599 0.371,-0.389 0.633,-0.946 0.779,-1.727 0.121,-0.761 0.142,-1.938 0.04,-3.523 -0.155,-2.34 -0.462,-3.896 -0.916,-4.671 -0.473,-0.78 -1.097,-1.152 -1.912,-1.107 -0.811,0.045 -1.394,0.479 -1.737,1.304 -0.336,0.855 -0.463,2.38 -0.377,4.595 z" id="path62"/>
	<path fill="#004ea2" d="m 330.242,310.951 c -5.354,1.107 -10.744,1.983 -16.156,2.627 0.021,-1.46 0.414,-2.894 1.18,-4.279 0.754,-1.379 2.275,-3.105 4.479,-5.219 1.334,-1.284 2.145,-2.25 2.455,-2.859 0.318,-0.624 0.424,-1.178 0.334,-1.666 -0.09,-0.514 -0.369,-0.946 -0.836,-1.259 -0.463,-0.287 -1,-0.408 -1.615,-0.307 -0.631,0.105 -1.113,0.393 -1.455,0.835 -0.342,0.468 -0.51,1.178 -0.502,2.185 -1.707,0.121 -3.41,0.221 -5.115,0.292 0.035,-1.384 0.262,-2.507 0.689,-3.337 0.408,-0.83 1.063,-1.505 1.943,-2.064 0.887,-0.538 2.145,-0.921 3.789,-1.192 1.713,-0.277 3.061,-0.322 4.092,-0.126 1.027,0.201 1.893,0.654 2.613,1.344 0.711,0.689 1.168,1.52 1.373,2.512 0.217,1.046 0.102,2.139 -0.352,3.217 -0.457,1.091 -1.459,2.375 -3,3.85 -0.916,0.855 -1.555,1.445 -1.857,1.772 -0.313,0.322 -0.68,0.754 -1.086,1.269 2.748,-0.443 5.486,-0.946 8.219,-1.516 0.265,1.309 0.537,2.613 0.808,3.921 z" id="path64"/>
</g>
<g id="g70" transform="matrix(0.92958228,0,0,0.92958228,-145.65718,-55.715444)">
	<path fill="#004ea2" d="m 308.952,171.795 -3.658,0.661 c -0.967,0.145 -1.157,0.734 -1.118,1.042 l -0.016,1.912 c -0.01,0.579 0.116,0.952 0.398,1.133 0.202,0.146 0.473,0.116 0.614,0.056 l 3.081,-0.665 c 0.724,-0.271 0.881,-0.745 0.855,-0.991 l -0.021,-1.048 c 0,-0.347 -0.146,-0.543 -0.271,-0.638 -0.316,-0.202 -0.725,-0.091 -0.77,-0.066 l -2.245,0.428 c -0.146,0.025 -0.246,0.151 -0.246,0.322 v 1.026 c 0,0.106 0.044,0.191 0.121,0.262 0.085,0.06 0.17,0.08 0.276,0.06 l 1.484,-0.377 c 0.166,-0.046 0.267,-0.227 0.223,-0.398 -0.047,-0.171 -0.223,-0.281 -0.383,-0.237 0,0 -0.661,0.167 -1.078,0.272 0,-0.166 0,-0.212 0,-0.363 0.413,-0.07 2.02,-0.373 2.02,-0.373 0.1,-0.035 0.19,-0.035 0.216,-0.015 v 0 c 0,0.015 0.009,0.101 0.009,0.101 l 0.035,1.082 c 0,0 -0.023,0.176 -0.396,0.313 l -3.115,0.694 c -0.055,0.021 -0.162,-0.081 -0.162,-0.579 v -1.947 c 0,-0.111 0.125,-0.297 0.589,-0.373 l 3.715,-0.669 c 0.045,-0.011 0.195,-0.045 0.297,0.024 0.1,0.066 0.16,0.292 0.16,0.584 v 2.643 c 0,0.01 0,0.01 0,0.01 0,0.11 -0.045,0.388 -0.614,0.563 0,0 -3.82,0.865 -3.895,0.886 -0.127,0 -0.408,0.009 -0.635,0.231 -0.141,0.131 -0.307,0.363 -0.286,0.811 v 3.196 c -0.011,0.015 -0.03,0.428 0.286,0.705 0.227,0.202 0.544,0.271 0.946,0.176 l 3.875,-0.881 c 0.287,-0.009 0.932,-0.251 0.977,-1.067 v -2.084 c 0,-0.05 -0.025,-0.372 -0.316,-0.608 -0.252,-0.207 -0.609,-0.262 -1.078,-0.187 l -2.718,0.746 c -0.262,0.005 -0.814,0.251 -0.814,0.936 v 0.987 c 0.01,0.075 0.056,0.396 0.353,0.599 0.221,0.161 0.497,0.181 0.835,0.125 l 2.054,-0.533 c 0.146,-0.024 0.247,-0.181 0.236,-0.327 l -0.091,-0.986 c 0,-0.09 -0.056,-0.181 -0.126,-0.252 -0.09,-0.044 -0.189,-0.055 -0.282,-0.044 l -0.926,0.271 c -0.16,0.045 -0.276,0.227 -0.216,0.397 0.039,0.171 0.226,0.272 0.393,0.227 0,0 0.282,-0.091 0.543,-0.156 0.025,0.156 0.025,0.19 0.025,0.327 -0.393,0.1 -1.756,0.443 -1.756,0.443 -0.306,0.07 -0.382,-0.06 -0.398,-0.151 v -0.926 c 0,-0.226 0.183,-0.292 0.283,-0.317 l 2.758,-0.726 c 0.317,-0.056 0.454,0 0.519,0.046 0.07,0.061 0.07,0.11 0.07,0.121 v 2.068 c 0,0.367 -0.281,0.413 -0.412,0.427 l -3.906,0.916 c -0.19,0.025 -0.327,0.01 -0.397,-0.04 -0.076,-0.071 -0.071,-0.217 -0.071,-0.217 v -3.231 c 0,-0.1 0,-0.251 0.071,-0.317 0.08,-0.066 0.207,-0.045 0.207,-0.045 0.03,0 0.065,0 0.116,-0.015 l 3.961,-0.896 c 1.236,-0.427 1.086,-1.238 1.086,-1.278 v -2.572 c 0,-0.529 -0.146,-0.906 -0.428,-1.107 -0.379,-0.272 -0.797,-0.136 -0.843,-0.127 z m -3.82,5.346 c -0.01,0 -0.03,0 -0.045,-0.009 0.015,-0.001 0.036,0.009 0.045,0.009 z" id="path68"/>
</g>
<g id="g74" transform="matrix(0.92958228,0,0,0.92958228,-145.65718,-55.715444)">
	<path fill="#004ea2" d="m 316.07,170.155 -3.66,0.654 c -0.965,0.151 -1.172,0.75 -1.127,1.047 l -0.02,1.897 c 0,0.583 0.125,0.966 0.412,1.147 0.201,0.146 0.459,0.126 0.609,0.056 l 3.092,-0.68 c 0.723,-0.261 0.869,-0.729 0.865,-0.971 l -0.041,-1.057 c 0,-0.353 -0.152,-0.534 -0.281,-0.625 -0.307,-0.211 -0.701,-0.101 -0.746,-0.076 l -2.244,0.413 c -0.146,0.025 -0.258,0.161 -0.258,0.306 v 1.058 c 0,0.101 0.047,0.207 0.111,0.251 0.086,0.066 0.191,0.086 0.271,0.066 l 1.496,-0.387 c 0.18,-0.046 0.271,-0.212 0.225,-0.383 -0.045,-0.171 -0.225,-0.283 -0.383,-0.236 0,0 -0.658,0.165 -1.086,0.267 0,-0.167 0,-0.211 0,-0.348 0.414,-0.081 2.039,-0.388 2.039,-0.388 0.09,-0.03 0.182,-0.03 0.207,-0.021 v 0 c 0,0.021 0.02,0.111 0.02,0.111 l 0.02,1.077 c 0,0 -0.02,0.196 -0.393,0.327 l -3.121,0.674 c -0.045,0.016 -0.164,-0.085 -0.156,-0.568 v -1.953 c 0,-0.111 0.121,-0.292 0.6,-0.372 l 3.703,-0.669 c 0.047,0 0.207,-0.056 0.297,0.014 0.117,0.085 0.172,0.292 0.172,0.599 v 2.628 c 0,0.015 0,0.024 0,0.035 0,0.11 -0.055,0.363 -0.623,0.569 0,0 -3.807,0.85 -3.896,0.87 -0.131,-0.01 -0.406,0.01 -0.639,0.227 -0.146,0.121 -0.297,0.372 -0.297,0.805 v 3.207 c 0,0.01 -0.004,0.418 0.297,0.69 0.217,0.226 0.543,0.271 0.965,0.206 l 3.861,-0.911 c 0.283,0 0.941,-0.246 0.977,-1.042 v -2.104 c -0.01,-0.046 -0.035,-0.362 -0.316,-0.589 -0.252,-0.207 -0.613,-0.272 -1.086,-0.187 l -2.715,0.729 c -0.246,0.005 -0.811,0.247 -0.811,0.951 v 0.977 c 0.012,0.076 0.055,0.382 0.354,0.584 0.211,0.161 0.498,0.207 0.836,0.137 l 2.037,-0.52 c 0.162,-0.045 0.262,-0.181 0.252,-0.336 l -0.09,-0.992 c 0,-0.095 -0.07,-0.19 -0.143,-0.237 -0.064,-0.065 -0.176,-0.065 -0.266,-0.044 l -0.932,0.251 c -0.17,0.056 -0.271,0.227 -0.227,0.408 0.057,0.156 0.227,0.271 0.408,0.221 0,0 0.271,-0.085 0.543,-0.151 0.021,0.151 0.021,0.192 0.035,0.313 -0.396,0.116 -1.756,0.453 -1.756,0.453 -0.318,0.071 -0.408,-0.065 -0.418,-0.146 l 0.01,-0.916 c 0,-0.246 0.182,-0.307 0.283,-0.317 l 2.742,-0.75 c 0.328,-0.044 0.473,0.025 0.533,0.071 0.066,0.045 0.08,0.11 0.08,0.11 v 2.063 c -0.014,0.363 -0.307,0.428 -0.422,0.428 l -3.922,0.911 c -0.17,0.03 -0.316,0.01 -0.383,-0.045 -0.078,-0.07 -0.078,-0.206 -0.078,-0.206 v -3.226 c 0,-0.106 0.008,-0.252 0.078,-0.323 0.066,-0.076 0.207,-0.055 0.207,-0.055 0.029,0 0.066,0 0.111,-0.01 l 3.957,-0.886 c 1.252,-0.417 1.096,-1.243 1.086,-1.279 l 0.01,-2.572 c 0,-0.533 -0.146,-0.916 -0.443,-1.117 -0.359,-0.249 -0.783,-0.129 -0.822,-0.113 z m -3.82,5.335 c 0,0 -0.031,0 -0.047,0 0.022,0 0.037,0 0.047,0 z" id="path72"/>
</g>
<g id="g78" transform="matrix(0.92958228,0,0,0.92958228,-145.65718,-55.715444)">
	<path fill="#004ea2" d="m 323.141,167.889 -3.664,1.178 c -1.166,0.337 -1.086,1.133 -1.086,1.157 v 1.898 c -0.02,0.579 0.1,0.94 0.396,1.112 0.229,0.136 0.49,0.091 0.635,-0.009 l 3.105,-1.123 c 0.836,-0.423 0.826,-0.977 0.816,-1.042 l -0.025,-1.067 c 0,-0.328 -0.16,-0.514 -0.293,-0.599 -0.307,-0.196 -0.703,-0.02 -0.77,0 l -2.256,0.76 c -0.135,0.045 -0.215,0.161 -0.215,0.307 v 1.027 c 0,0.116 0.045,0.216 0.135,0.276 0.09,0.066 0.201,0.066 0.303,0.03 l 1.465,-0.578 c 0.18,-0.066 0.252,-0.257 0.191,-0.429 -0.055,-0.161 -0.262,-0.251 -0.418,-0.181 0,0 -0.609,0.247 -1.043,0.408 0,-0.161 0,-0.227 0,-0.332 0.363,-0.116 2.074,-0.69 2.074,-0.69 0.035,0 0.207,-0.045 0.207,-0.045 0,0 -0.025,0.08 -0.025,0.07 l 0.029,1.072 c 0,0 -0.02,0.222 -0.438,0.423 l -3.115,1.132 c -0.035,0.01 -0.061,0.021 -0.061,0.021 0,-0.021 -0.057,-0.121 -0.057,-0.453 0,-0.02 0,-2.039 0,-2.039 0,-0.02 0.025,-0.317 0.641,-0.498 l 3.715,-1.194 c 0.092,-0.044 0.211,-0.074 0.281,-0.03 0.057,0.046 0.137,0.206 0.137,0.528 v 2.633 c 0,0.01 0,0.025 0,0.036 0,0.115 -0.061,0.407 -0.654,0.704 0,0 -3.912,1.425 -3.932,1.425 -0.131,0.02 -0.367,0.071 -0.588,0.292 -0.127,0.136 -0.277,0.368 -0.277,0.765 0,0.01 0,0.03 0,0.056 v 3.191 c 0,0.025 0,0.025 0,0.045 0,0.101 0.035,0.443 0.307,0.66 0.236,0.181 0.578,0.201 0.996,0.07 l 3.852,-1.454 c 0.285,-0.041 0.91,-0.362 0.941,-1.143 v -2.099 c -0.012,-0.044 -0.021,-0.372 -0.328,-0.573 -0.262,-0.191 -0.635,-0.207 -1.111,-0.041 l -2.719,1.103 c -0.236,0.056 -0.766,0.362 -0.766,1.022 v 0.987 c 0.006,0.09 0.051,0.382 0.348,0.568 0.227,0.136 0.533,0.151 0.887,0.021 l 2.039,-0.806 c 0.135,-0.056 0.211,-0.196 0.199,-0.328 l -0.09,-0.976 c 0,-0.1 -0.066,-0.201 -0.156,-0.246 -0.096,-0.056 -0.195,-0.07 -0.297,-0.025 l -0.926,0.397 c -0.162,0.076 -0.227,0.262 -0.172,0.418 0.082,0.156 0.258,0.251 0.434,0.181 0,0 0.262,-0.116 0.518,-0.222 0.012,0.151 0.012,0.176 0.035,0.292 -0.361,0.137 -1.816,0.709 -1.816,0.709 -0.201,0.071 -0.291,0.036 -0.326,0.036 l -0.041,-0.091 0.01,-0.916 c 0,-0.292 0.271,-0.383 0.328,-0.408 l 2.727,-1.112 c 0.354,-0.111 0.5,-0.051 0.52,-0.035 0.049,0.035 0.061,0.07 0.061,0.07 v 2.059 c -0.021,0.433 -0.398,0.523 -0.463,0.548 l -3.912,1.45 c -0.205,0.071 -0.342,0.071 -0.373,0.031 -0.043,-0.031 -0.055,-0.121 -0.055,-0.166 v -3.216 c -0.014,-0.398 0.201,-0.468 0.326,-0.478 0.025,0 0.068,0 0.102,-0.016 l 3.967,-1.455 c 1.193,-0.568 1.053,-1.349 1.041,-1.384 l 0.012,-2.577 c 0,-0.528 -0.156,-0.891 -0.443,-1.071 -0.395,-0.237 -0.813,-0.045 -0.869,-0.021 z" id="path76"/>
</g>
<g id="g82" transform="matrix(0.92958228,0,0,0.92958228,-145.65718,-55.715444)">
	<path fill="#004ea2" d="m 310.287,194.692 -3.645,0.66 c -0.965,0.155 -1.158,0.755 -1.132,1.052 v 1.917 c -0.025,0.564 0.111,0.952 0.383,1.133 0.227,0.146 0.473,0.126 0.624,0.045 l 3.096,-0.669 c 0.724,-0.261 0.87,-0.74 0.86,-0.976 l -0.025,-1.052 c 0,-0.343 -0.16,-0.518 -0.297,-0.609 -0.301,-0.241 -0.699,-0.115 -0.744,-0.105 l -2.245,0.433 c -0.155,0.03 -0.257,0.171 -0.257,0.317 v 1.032 c 0,0.111 0.03,0.201 0.121,0.271 0.081,0.046 0.181,0.081 0.278,0.046 l 1.479,-0.363 c 0.17,-0.045 0.271,-0.231 0.216,-0.388 -0.021,-0.19 -0.216,-0.292 -0.387,-0.246 0,0 -0.636,0.167 -1.063,0.267 0,-0.155 0,-0.222 0,-0.353 0.408,-0.075 2.018,-0.382 2.018,-0.382 0.102,-0.03 0.192,-0.03 0.201,-0.025 v 0 c 0,0.025 0.025,0.106 0.025,0.106 l 0.021,1.077 c 0,0.011 -0.021,0.207 -0.383,0.328 l -3.117,0.68 c -0.056,0.035 -0.171,-0.08 -0.171,-0.564 v -1.953 c 0,-0.11 0.136,-0.292 0.614,-0.367 l 3.715,-0.675 c 0.031,-0.025 0.191,-0.045 0.293,0.025 0.09,0.065 0.16,0.297 0.16,0.589 v 2.628 c 0,0.014 0,0.019 0,0.044 0,0.091 -0.045,0.353 -0.639,0.544 0,0 -3.806,0.871 -3.877,0.886 -0.13,0 -0.402,0.011 -0.643,0.227 -0.137,0.111 -0.303,0.373 -0.283,0.8 v 3.212 c -0.009,0.02 -0.021,0.417 0.283,0.705 0.232,0.201 0.559,0.251 0.965,0.201 l 3.861,-0.906 c 0.287,-0.016 0.941,-0.252 0.967,-1.067 v -2.085 c 0,-0.065 -0.016,-0.387 -0.297,-0.603 -0.262,-0.211 -0.631,-0.267 -1.088,-0.191 l -2.718,0.729 c -0.253,0.021 -0.831,0.267 -0.831,0.946 v 0.977 c 0.015,0.106 0.086,0.408 0.353,0.609 0.225,0.141 0.522,0.195 0.85,0.125 l 2.054,-0.529 c 0.146,-0.04 0.251,-0.186 0.228,-0.342 l -0.072,-0.977 c -0.019,-0.09 -0.064,-0.176 -0.15,-0.247 -0.074,-0.045 -0.166,-0.065 -0.267,-0.035 l -0.921,0.251 c -0.176,0.055 -0.267,0.237 -0.223,0.398 0.047,0.176 0.223,0.267 0.395,0.221 0,0 0.281,-0.066 0.559,-0.146 0,0.146 0,0.187 0.02,0.333 -0.402,0.1 -1.766,0.453 -1.766,0.453 -0.309,0.051 -0.383,-0.081 -0.408,-0.161 l 0.01,-0.931 c 0,-0.226 0.181,-0.292 0.282,-0.302 l 2.741,-0.74 c 0.322,-0.046 0.475,0 0.545,0.056 0.061,0.04 0.07,0.104 0.07,0.13 v 2.039 c -0.01,0.383 -0.293,0.428 -0.432,0.428 l -3.896,0.921 c -0.188,0.03 -0.332,0.019 -0.398,-0.051 -0.08,-0.056 -0.08,-0.191 -0.08,-0.211 v -3.217 c 0,-0.105 0.024,-0.251 0.08,-0.322 0.081,-0.065 0.206,-0.044 0.206,-0.044 0.03,0 0.076,0 0.102,-0.011 l 3.966,-0.905 c 1.248,-0.418 1.088,-1.238 1.088,-1.279 v -2.562 c 0,-0.544 -0.137,-0.921 -0.428,-1.133 -0.367,-0.253 -0.785,-0.117 -0.846,-0.117 z m -3.806,5.35 c 0,0 -0.03,0 -0.046,0 0.017,0 0.037,0 0.046,0 z" id="path80"/>
</g>
<g id="g86" transform="matrix(0.92958228,0,0,0.92958228,-145.65718,-55.715444)">
	<path fill="#004ea2" d="m 317.42,193.152 -3.66,0.649 c -0.967,0.146 -1.158,0.745 -1.137,1.042 v 1.913 c -0.012,0.579 0.115,0.951 0.387,1.133 0.227,0.151 0.475,0.11 0.635,0.055 l 3.07,-0.68 c 0.734,-0.261 0.881,-0.72 0.869,-0.981 l -0.035,-1.042 c 0,-0.342 -0.145,-0.548 -0.281,-0.629 -0.291,-0.211 -0.699,-0.101 -0.746,-0.076 l -2.242,0.429 c -0.162,0.025 -0.273,0.161 -0.273,0.317 v 1.032 c 0,0.101 0.047,0.191 0.127,0.261 0.084,0.046 0.182,0.071 0.281,0.046 l 1.475,-0.363 c 0.182,-0.045 0.283,-0.226 0.236,-0.398 -0.045,-0.166 -0.215,-0.282 -0.396,-0.236 0,0 -0.645,0.155 -1.068,0.271 0,-0.171 0,-0.227 0,-0.353 0.408,-0.08 2.02,-0.382 2.02,-0.382 0.105,-0.036 0.195,-0.036 0.207,-0.025 0,0 0,0 0,0.015 0,0.01 0.018,0.09 0.018,0.09 l 0.025,1.088 c 0,0 -0.025,0.176 -0.383,0.317 l -3.109,0.689 c -0.064,0.009 -0.176,-0.09 -0.172,-0.579 v -1.948 c 0,-0.116 0.133,-0.297 0.605,-0.363 l 3.713,-0.679 c 0.037,0 0.197,-0.055 0.287,0.021 0.117,0.07 0.168,0.297 0.168,0.589 v 2.628 c 0,0.024 0,0.024 0,0.04 0,0.101 -0.051,0.373 -0.619,0.549 0,0 -3.807,0.875 -3.893,0.885 -0.129,0 -0.408,0 -0.658,0.227 -0.131,0.126 -0.293,0.363 -0.268,0.795 v 3.216 c 0,0.026 -0.029,0.418 0.268,0.7 0.232,0.207 0.568,0.277 0.98,0.182 l 3.861,-0.891 c 0.281,-0.011 0.941,-0.242 0.971,-1.052 v -2.099 c 0,-0.056 -0.02,-0.362 -0.311,-0.599 -0.262,-0.207 -0.615,-0.272 -1.078,-0.181 l -2.723,0.724 c -0.256,0.03 -0.811,0.271 -0.811,0.951 v 0.987 c 0,0.075 0.064,0.382 0.352,0.583 0.213,0.161 0.494,0.207 0.836,0.136 l 2.049,-0.529 c 0.145,-0.02 0.246,-0.181 0.227,-0.342 l -0.082,-0.971 c -0.004,-0.102 -0.049,-0.192 -0.135,-0.247 -0.076,-0.045 -0.176,-0.07 -0.266,-0.04 l -0.932,0.262 c -0.172,0.045 -0.271,0.232 -0.217,0.408 0.045,0.16 0.217,0.261 0.396,0.206 0,0 0.283,-0.071 0.545,-0.162 0.02,0.162 0.02,0.207 0.035,0.327 -0.412,0.102 -1.768,0.453 -1.768,0.453 -0.316,0.071 -0.387,-0.066 -0.408,-0.145 v -0.927 c 0,-0.237 0.203,-0.297 0.309,-0.322 l 2.729,-0.72 c 0.316,-0.061 0.473,0.01 0.533,0.045 0.064,0.045 0.076,0.126 0.076,0.126 v 2.058 c -0.021,0.368 -0.293,0.423 -0.418,0.428 l -3.908,0.911 c -0.186,0.03 -0.34,0.01 -0.406,-0.036 -0.07,-0.071 -0.07,-0.201 -0.07,-0.201 v -3.242 c 0,-0.09 0,-0.251 0.09,-0.322 0.072,-0.065 0.182,-0.05 0.182,-0.05 0.045,0.006 0.092,0 0.111,0 l 3.965,-0.896 c 1.25,-0.422 1.098,-1.248 1.094,-1.283 l 0.004,-2.572 c 0,-0.533 -0.145,-0.906 -0.438,-1.118 -0.364,-0.26 -0.782,-0.128 -0.825,-0.103 z m -3.82,5.325 c 0,0 -0.031,0 -0.047,0 0.015,0 0.021,0 0.047,0 z" id="path84"/>
</g>
<g id="g90" transform="matrix(0.92958228,0,0,0.92958228,-145.65718,-55.715444)">
	<path fill="#004ea2" d="m 324.496,190.952 -3.67,1.173 c -1.168,0.347 -1.088,1.132 -1.088,1.162 v 1.908 c -0.018,0.574 0.117,0.936 0.383,1.103 0.242,0.141 0.5,0.07 0.66,-0.015 l 3.08,-1.112 c 0.865,-0.413 0.84,-0.987 0.84,-1.048 l -0.033,-1.057 c 0,-0.342 -0.146,-0.523 -0.283,-0.604 -0.316,-0.201 -0.699,-0.035 -0.785,0 l -2.25,0.75 c -0.135,0.045 -0.217,0.166 -0.217,0.308 v 1.037 c 0,0.101 0.057,0.202 0.127,0.271 0.09,0.06 0.211,0.071 0.303,0.025 l 1.488,-0.579 c 0.15,-0.066 0.236,-0.262 0.176,-0.418 -0.068,-0.161 -0.262,-0.251 -0.426,-0.186 0,0 -0.594,0.242 -1.033,0.413 0,-0.171 0,-0.207 0,-0.327 0.371,-0.125 2.074,-0.69 2.074,-0.69 0.02,-0.015 0.207,-0.045 0.207,-0.045 l -0.025,0.061 0.025,1.083 c 0,0 -0.018,0.201 -0.434,0.417 l -3.115,1.132 c -0.035,0.01 -0.057,0.01 -0.057,0.01 0,-0.01 -0.068,-0.121 -0.068,-0.443 0,-0.024 0,-2.023 0,-2.039 0,-0.045 0.033,-0.317 0.643,-0.498 l 3.709,-1.204 c 0.086,-0.021 0.221,-0.065 0.281,-0.021 0.066,0.046 0.133,0.206 0.133,0.534 v 2.637 c 0,0 0,0 0,0.025 0,0.11 -0.031,0.407 -0.645,0.69 0,0 -3.922,1.439 -3.926,1.449 -0.127,0.01 -0.367,0.044 -0.596,0.276 -0.119,0.131 -0.271,0.368 -0.271,0.756 0,0.019 0,0.05 0,0.065 v 3.211 c 0,0 0,0.005 0,0.035 0,0.11 0.021,0.427 0.297,0.629 0.238,0.207 0.574,0.232 1.008,0.091 l 3.85,-1.45 c 0.277,-0.045 0.912,-0.357 0.932,-1.132 v -2.104 c 0,-0.045 -0.02,-0.367 -0.316,-0.569 -0.262,-0.19 -0.635,-0.207 -1.113,-0.065 l -2.717,1.118 c -0.236,0.06 -0.771,0.367 -0.771,1.021 v 0.987 c 0,0.08 0.072,0.387 0.352,0.563 0.238,0.136 0.535,0.136 0.883,0.025 l 2.037,-0.816 c 0.127,-0.045 0.217,-0.181 0.207,-0.327 l -0.09,-0.966 c -0.016,-0.116 -0.057,-0.206 -0.146,-0.251 -0.09,-0.065 -0.207,-0.065 -0.297,-0.015 l -0.926,0.382 c -0.162,0.066 -0.252,0.262 -0.172,0.429 0.057,0.171 0.262,0.237 0.422,0.171 0,0 0.258,-0.115 0.52,-0.217 0.01,0.137 0.025,0.182 0.025,0.283 -0.352,0.146 -1.807,0.714 -1.807,0.714 -0.217,0.081 -0.309,0.045 -0.328,0.035 l -0.039,-0.08 v -0.916 c 0,-0.307 0.281,-0.398 0.338,-0.418 l 2.742,-1.111 c 0.338,-0.116 0.473,-0.046 0.518,-0.021 0.031,0.021 0.031,0.056 0.031,0.065 v 2.064 c -0.006,0.428 -0.383,0.519 -0.459,0.529 l -3.9,1.464 c -0.211,0.066 -0.338,0.045 -0.373,0.02 -0.033,-0.02 -0.055,-0.116 -0.045,-0.16 v -3.227 c -0.01,-0.397 0.18,-0.453 0.303,-0.463 0.039,0 0.08,0 0.115,-0.025 l 3.967,-1.449 c 1.188,-0.564 1.041,-1.354 1.041,-1.379 v -2.572 c 0,-0.534 -0.137,-0.896 -0.434,-1.077 -0.385,-0.246 -0.817,-0.045 -0.862,-0.025 z" id="path88"/>
</g>
<g id="g94" transform="matrix(0.92958228,0,0,0.92958228,-145.65718,-55.715444)">
	<path fill="#004ea2" d="m 271.566,171.921 c -0.297,0.202 -0.433,0.579 -0.433,1.107 v 2.632 c 0,-0.021 -0.171,0.805 1.057,1.213 l 3.997,0.901 c 0.035,0.015 0.07,0.015 0.101,0.015 0,0 0.126,-0.015 0.196,0.045 0.081,0.066 0.081,0.226 0.081,0.302 v 3.231 c 0,0.025 0,0.161 -0.071,0.217 -0.071,0.065 -0.227,0.08 -0.423,0.045 l -3.825,-0.896 c -0.181,-0.01 -0.463,-0.07 -0.479,-0.453 v -2.063 c 0,0.011 0.015,-0.05 0.081,-0.11 0.055,-0.036 0.201,-0.102 0.553,-0.046 l 2.667,0.726 c 0.156,0.024 0.353,0.091 0.353,0.317 v 0.987 c -0.015,0.02 -0.106,0.16 -0.438,0.09 0,0 -1.349,-0.343 -1.742,-0.443 0.01,-0.137 0.01,-0.171 0.035,-0.327 0.251,0.08 0.543,0.156 0.543,0.156 0.166,0.046 0.353,-0.056 0.397,-0.237 0.056,-0.16 -0.045,-0.342 -0.231,-0.387 l -0.916,-0.271 c -0.085,-0.021 -0.191,0 -0.272,0.055 -0.075,0.061 -0.136,0.151 -0.146,0.242 l -0.08,0.986 c -0.025,0.146 0.08,0.303 0.251,0.327 l 2.013,0.533 c 0.363,0.081 0.634,0.036 0.866,-0.125 0.292,-0.202 0.348,-0.523 0.362,-0.543 v -1.042 c 0,-0.685 -0.594,-0.931 -0.875,-0.952 l -2.652,-0.73 c -0.489,-0.06 -0.846,-0.02 -1.107,0.187 -0.282,0.236 -0.297,0.559 -0.297,0.589 v 2.083 c 0.02,0.836 0.679,1.078 1.021,1.087 l 3.795,0.896 c 0.418,0.081 0.75,0.011 0.972,-0.19 0.307,-0.283 0.287,-0.68 0.287,-0.725 v -3.196 c 0.021,-0.427 -0.151,-0.659 -0.287,-0.79 -0.236,-0.222 -0.519,-0.231 -0.645,-0.231 -0.076,-0.021 -3.921,-0.886 -3.921,-0.886 -0.563,-0.192 -0.589,-0.463 -0.589,-0.519 v -2.697 c 0,-0.292 0.061,-0.508 0.171,-0.584 0.09,-0.07 0.251,-0.035 0.251,-0.035 l 3.735,0.68 c 0.478,0.076 0.614,0.262 0.614,0.362 v 1.958 c 0.026,0.499 -0.101,0.589 -0.101,0.6 l -3.207,-0.714 c -0.342,-0.137 -0.362,-0.313 -0.362,-0.313 l 0.03,-1.067 c 0,-0.021 0.015,-0.125 0.015,-0.125 0.025,-0.01 0.111,-0.01 0.171,0.01 0,0 1.651,0.317 2.059,0.397 0,0.126 0,0.196 0,0.353 -0.428,-0.11 -1.067,-0.256 -1.067,-0.256 -0.167,-0.061 -0.357,0.05 -0.393,0.221 -0.05,0.171 0.056,0.343 0.236,0.398 l 1.475,0.377 c 0.085,0.006 0.201,0 0.271,-0.06 0.075,-0.071 0.121,-0.156 0.121,-0.262 v -1.026 c 0,-0.171 -0.11,-0.297 -0.262,-0.333 l -2.285,-0.428 c 0,-0.015 -0.398,-0.125 -0.705,0.076 -0.136,0.115 -0.292,0.291 -0.292,0.638 l -0.025,1.062 c -0.01,0.232 0.136,0.705 0.826,0.952 l 3.201,0.705 c 0.076,0.055 0.322,0.076 0.554,-0.07 0.271,-0.181 0.397,-0.563 0.372,-1.133 v -1.947 c 0.035,-0.252 -0.161,-0.861 -1.133,-1.006 l -3.694,-0.67 c 0.005,-0.005 -0.413,-0.141 -0.775,0.13 z m 4.69,5.21 c -0.01,0 -0.035,0 -0.045,0 0.01,0 0.035,0 0.045,0 z" id="path92"/>
</g>
<g id="g98" transform="matrix(0.92958228,0,0,0.92958228,-145.65718,-55.715444)">
	<path fill="#004ea2" d="m 264.403,170.255 c -0.282,0.192 -0.442,0.554 -0.442,1.103 v 2.627 c 0,-0.024 -0.146,0.791 1.057,1.254 l 3.986,1.123 c 0.036,0 0.065,0 0.111,0 0,0 0.126,0 0.216,0.08 0.071,0.08 0.081,0.217 0.081,0.317 v 3.231 c 0,0.041 -0.01,0.157 -0.065,0.201 -0.07,0.066 -0.216,0.066 -0.408,0.016 l -3.83,-1.103 c -0.161,-0.025 -0.479,-0.09 -0.503,-0.499 v -2.063 c 0,0.015 0.015,-0.046 0.07,-0.09 0.045,-0.021 0.196,-0.09 0.559,-0.01 l 2.658,0.86 c 0.126,0.03 0.368,0.091 0.368,0.373 0,0 0,0.921 0,0.951 0,0 -0.025,0.046 -0.086,0.072 -0.061,0.044 -0.176,0.044 -0.337,0 0,0 -1.369,-0.429 -1.751,-0.544 0.005,-0.125 0.005,-0.161 0.02,-0.317 0.272,0.085 0.543,0.182 0.543,0.182 0.171,0.055 0.353,-0.025 0.408,-0.202 0.055,-0.161 -0.03,-0.343 -0.191,-0.413 l -0.942,-0.318 c -0.09,-0.02 -0.191,-0.004 -0.271,0.046 -0.091,0.055 -0.151,0.146 -0.161,0.246 l -0.081,0.981 c -0.01,0.132 0.081,0.292 0.227,0.338 l 2.033,0.618 c 0.358,0.096 0.645,0.061 0.871,-0.075 0.292,-0.207 0.337,-0.499 0.353,-0.543 v -1.022 c 0,-0.689 -0.544,-0.946 -0.841,-0.997 l -2.652,-0.861 c -0.499,-0.11 -0.856,-0.07 -1.118,0.126 -0.282,0.217 -0.307,0.553 -0.307,0.579 l -0.015,2.099 c 0.045,0.8 0.684,1.072 1.021,1.118 l 3.795,1.097 c 0.423,0.105 0.745,0.06 0.981,-0.146 0.267,-0.227 0.297,-0.543 0.297,-0.68 0,-0.02 0,-0.045 0,-0.045 v -3.196 c 0,-0.01 0,-0.036 0,-0.041 0,-0.397 -0.156,-0.629 -0.282,-0.75 -0.227,-0.232 -0.488,-0.252 -0.619,-0.252 -0.045,-0.009 -3.946,-1.106 -3.946,-1.106 -0.564,-0.222 -0.604,-0.514 -0.604,-0.569 0,-0.01 0,-2.693 0,-2.693 0,-0.413 0.116,-0.548 0.161,-0.569 0.08,-0.044 0.207,-0.02 0.251,-0.014 l 3.74,0.895 c 0.483,0.095 0.619,0.292 0.619,0.398 v 1.963 c 0.015,0.473 -0.091,0.589 -0.091,0.589 l -3.201,-0.912 c -0.353,-0.146 -0.378,-0.337 -0.378,-0.357 l 0.03,-1.058 c 0,-0.009 0.015,-0.116 0.015,-0.116 0.025,0 0.101,0.016 0.161,0.036 0,0 1.686,0.407 2.069,0.514 0,0.13 0,0.176 0,0.347 -0.413,-0.131 -1.052,-0.327 -1.052,-0.327 -0.166,-0.045 -0.352,0.045 -0.398,0.216 -0.05,0.171 0.036,0.347 0.207,0.407 l 1.48,0.454 c 0.096,0.03 0.196,0.025 0.287,-0.045 0.08,-0.071 0.136,-0.161 0.136,-0.272 v -1.032 c 0,-0.146 -0.101,-0.281 -0.262,-0.307 l -2.275,-0.563 c -0.035,-0.025 -0.413,-0.141 -0.715,0.065 -0.151,0.095 -0.297,0.262 -0.297,0.615 l -0.021,1.067 c -0.01,0.045 -0.025,0.633 0.795,0.972 l 3.196,0.88 c 0.09,0.045 0.347,0.091 0.574,-0.055 0.272,-0.167 0.408,-0.529 0.388,-1.144 v -1.927 c 0,0 0.065,-0.791 -1.132,-1.053 l -3.7,-0.86 c 0,-0.01 -0.412,-0.171 -0.79,0.09 z m 4.691,5.471 h -0.03 z" id="path96"/>
</g>
<g id="g102" transform="matrix(0.92958228,0,0,0.92958228,-145.65718,-55.715444)">
	<path fill="#004ea2" d="m 257.336,167.91 c -0.287,0.181 -0.443,0.543 -0.443,1.087 v 2.627 c 0,-0.03 -0.151,0.75 1.032,1.304 l 3.986,1.469 c 0.035,0.016 0.065,0.025 0.101,0.025 0.126,0.016 0.343,0.081 0.332,0.443 v 3.242 c 0,0.045 -0.025,0.146 -0.045,0.166 -0.061,0.041 -0.187,0.041 -0.408,-0.031 l -3.831,-1.438 c -0.125,-0.036 -0.503,-0.126 -0.523,-0.559 v -2.068 c 0.081,-0.076 0.227,-0.137 0.599,-0.025 l 2.667,1.097 c 0.085,0.041 0.368,0.131 0.368,0.434 v 0.977 c -0.065,0.02 -0.156,0.055 -0.368,-0.016 0,0 -1.439,-0.563 -1.807,-0.709 0.015,-0.116 0.025,-0.151 0.035,-0.292 0.262,0.106 0.523,0.222 0.523,0.222 0.171,0.07 0.352,-0.025 0.428,-0.171 0.07,-0.166 -0.01,-0.353 -0.181,-0.418 l -0.926,-0.408 c -0.096,-0.03 -0.207,-0.02 -0.292,0.025 -0.086,0.051 -0.142,0.156 -0.151,0.246 l -0.09,0.976 c -0.01,0.132 0.065,0.272 0.201,0.328 l 2.018,0.806 c 0.373,0.13 0.67,0.125 0.906,-0.021 0.292,-0.176 0.342,-0.478 0.352,-0.514 v -1.031 c 0,-0.67 -0.533,-0.977 -0.825,-1.042 l -2.643,-1.092 c -0.498,-0.15 -0.871,-0.131 -1.132,0.05 -0.307,0.202 -0.327,0.519 -0.327,0.554 v 2.094 c 0.035,0.805 0.654,1.127 0.997,1.177 l 3.78,1.435 c 0.443,0.146 0.775,0.111 1.012,-0.07 0.271,-0.206 0.307,-0.533 0.307,-0.66 0,-0.02 0,-0.056 0,-0.056 v -3.196 c 0,-0.01 0,-0.03 0,-0.041 0,-0.392 -0.146,-0.629 -0.277,-0.765 -0.221,-0.221 -0.458,-0.271 -0.584,-0.281 -0.02,-0.01 -3.956,-1.46 -3.956,-1.46 -0.599,-0.271 -0.634,-0.578 -0.634,-0.649 0,-0.01 0,-2.682 0,-2.682 0,-0.338 0.081,-0.499 0.151,-0.544 0.05,-0.03 0.176,0 0.237,0.025 l 3.74,1.199 c 0.644,0.195 0.644,0.478 0.644,0.498 v 1.948 c 0.01,0.467 -0.081,0.569 -0.081,0.569 l -3.196,-1.178 c -0.373,-0.202 -0.398,-0.408 -0.398,-0.423 l 0.035,-1.072 c 0,0 0.015,-0.07 0.015,-0.08 0,0.036 0.136,0.055 0.136,0.055 0,0 1.731,0.574 2.094,0.69 0,0.125 0,0.171 0,0.332 -0.433,-0.161 -1.032,-0.398 -1.032,-0.398 -0.156,-0.066 -0.352,0.01 -0.418,0.171 -0.055,0.182 0.01,0.363 0.181,0.418 l 1.48,0.604 c 0.091,0.03 0.206,0.02 0.297,-0.046 0.081,-0.05 0.141,-0.16 0.141,-0.276 v -1.027 c 0,-0.146 -0.095,-0.261 -0.221,-0.307 l -2.285,-0.76 c -0.045,-0.015 -0.428,-0.196 -0.75,0 -0.136,0.101 -0.282,0.262 -0.282,0.624 l -0.035,1.062 c -0.01,0.046 -0.01,0.614 0.79,1.011 l 3.186,1.164 c 0.101,0.07 0.363,0.115 0.589,-0.021 0.287,-0.161 0.408,-0.524 0.397,-1.112 V 170.2 c 0,0 0.081,-0.795 -1.097,-1.133 l -3.695,-1.178 c -0.014,-0.024 -0.441,-0.216 -0.824,0.021 z" id="path100"/>
</g>
<g id="g106" transform="matrix(0.92958228,0,0,0.92958228,-145.65718,-55.715444)">
	<path fill="#004ea2" d="m 269.773,194.772 c -0.282,0.202 -0.418,0.58 -0.418,1.087 v 2.563 c 0,-0.036 -0.171,0.78 1.052,1.177 l 3.986,0.871 c 0.045,0.025 0.086,0.025 0.116,0.025 0.035,-0.025 0.146,0 0.206,0.045 0.065,0.07 0.065,0.175 0.065,0.282 v 3.125 c 0,0.025 0,0.151 -0.065,0.216 -0.06,0.056 -0.217,0.07 -0.408,0.03 l -3.846,-0.865 c -0.166,-0.016 -0.458,-0.071 -0.473,-0.434 v -2.008 c 0,0.016 0.015,-0.04 0.076,-0.075 0.06,-0.045 0.217,-0.115 0.559,-0.045 l 2.673,0.7 c 0.125,0 0.332,0.044 0.332,0.297 v 0.951 c 0,0.026 -0.095,0.146 -0.422,0.081 0,0 -1.334,-0.333 -1.747,-0.433 0.015,-0.121 0.015,-0.156 0.025,-0.302 0.272,0.075 0.559,0.156 0.559,0.156 0.176,0.04 0.348,-0.061 0.398,-0.211 0.05,-0.187 -0.061,-0.368 -0.222,-0.413 l -0.926,-0.247 c -0.095,-0.035 -0.196,-0.015 -0.271,0.045 -0.081,0.055 -0.126,0.121 -0.136,0.236 l -0.091,0.951 c -0.01,0.162 0.091,0.292 0.252,0.338 l 2.023,0.498 c 0.352,0.091 0.649,0.025 0.851,-0.121 0.297,-0.191 0.353,-0.488 0.353,-0.523 v -1.006 c 0,-0.68 -0.554,-0.916 -0.861,-0.941 l -2.653,-0.695 c -0.488,-0.086 -0.86,-0.015 -1.107,0.187 -0.287,0.211 -0.297,0.534 -0.297,0.563 v 2.039 c 0.021,0.805 0.68,1.031 1.017,1.041 l 3.8,0.866 c 0.428,0.076 0.755,0.021 0.986,-0.181 0.302,-0.271 0.267,-0.669 0.267,-0.714 v -3.096 c 0.025,-0.407 -0.136,-0.633 -0.267,-0.765 -0.242,-0.231 -0.533,-0.242 -0.66,-0.231 -0.08,-0.02 -3.92,-0.856 -3.92,-0.856 -0.569,-0.187 -0.599,-0.458 -0.599,-0.503 l 0.01,-2.617 c 0,-0.282 0.065,-0.473 0.161,-0.559 0.101,-0.075 0.257,-0.02 0.257,-0.02 l 3.75,0.649 c 0.468,0.076 0.604,0.247 0.604,0.337 v 1.893 c 0.01,0.473 -0.09,0.579 -0.09,0.579 l -3.232,-0.695 c -0.327,-0.105 -0.342,-0.292 -0.342,-0.292 l 0.036,-1.032 c 0,-0.025 0.015,-0.121 0.015,-0.121 0,0 0.1,0 0.156,0.021 0,0 1.656,0.292 2.074,0.383 0,0.13 0,0.17 0,0.341 -0.433,-0.11 -1.077,-0.271 -1.077,-0.271 -0.181,-0.045 -0.353,0.061 -0.397,0.228 -0.045,0.181 0.07,0.362 0.242,0.387 l 1.469,0.372 c 0.106,0.025 0.196,0.01 0.282,-0.06 0.086,-0.056 0.116,-0.156 0.116,-0.247 v -1.016 c 0,-0.151 -0.101,-0.297 -0.262,-0.322 l -2.291,-0.413 c -0.03,-0.016 -0.407,-0.131 -0.709,0.085 -0.126,0.105 -0.272,0.281 -0.272,0.608 l -0.025,1.038 c -0.02,0.221 0.136,0.689 0.815,0.926 l 3.196,0.704 c 0.09,0.045 0.342,0.066 0.559,-0.085 0.267,-0.192 0.397,-0.549 0.382,-1.118 v -1.877 c 0,0 0.065,-0.795 -1.143,-0.987 l -3.699,-0.645 c -10e-4,0 -0.414,-0.14 -0.792,0.121 z m 4.707,5.064 c -0.015,0 -0.041,0 -0.041,0 0.016,0 0.026,0 0.041,0 z" id="path104"/>
</g>
<g id="g110" transform="matrix(0.92958228,0,0,0.92958228,-145.65718,-55.715444)">
	<path fill="#004ea2" d="m 262.843,193.197 c -0.287,0.191 -0.433,0.568 -0.433,1.102 v 2.613 c 0,-0.021 -0.156,0.795 1.031,1.248 l 3.997,1.132 c 0.045,0.016 0.086,0.016 0.116,0.016 0,0 0.136,0 0.206,0.075 0.076,0.07 0.091,0.206 0.091,0.317 v 3.231 c 0,0.046 -0.015,0.162 -0.07,0.192 -0.056,0.07 -0.211,0.07 -0.408,0.025 l -3.83,-1.112 c -0.156,-0.025 -0.478,-0.09 -0.488,-0.499 v -2.059 c 0,0 0,-0.05 0.071,-0.096 0.03,-0.02 0.176,-0.091 0.543,0 l 2.663,0.86 c 0.126,0.025 0.348,0.091 0.348,0.368 0,0 0,0.926 0,0.956 0,-0.005 -0.005,0.041 -0.065,0.06 -0.056,0.046 -0.181,0.046 -0.333,0 0,0 -1.379,-0.417 -1.751,-0.543 0,-0.126 0.015,-0.162 0.015,-0.317 0.267,0.09 0.543,0.191 0.543,0.191 0.167,0.06 0.348,-0.036 0.403,-0.217 0.055,-0.156 -0.02,-0.336 -0.202,-0.407 l -0.92,-0.292 c -0.101,-0.045 -0.202,-0.02 -0.282,0.025 -0.081,0.055 -0.136,0.157 -0.146,0.247 l -0.09,0.971 c -0.01,0.161 0.08,0.297 0.226,0.342 l 2.029,0.629 c 0.362,0.085 0.659,0.061 0.875,-0.085 0.292,-0.181 0.343,-0.498 0.343,-0.519 l 0.015,-1.042 c 0,-0.685 -0.564,-0.957 -0.856,-1.002 l -2.643,-0.851 c -0.498,-0.125 -0.861,-0.076 -1.112,0.126 -0.297,0.227 -0.317,0.544 -0.317,0.568 v 2.109 c 0.02,0.81 0.679,1.087 1.021,1.106 l 3.785,1.098 c 0.413,0.105 0.745,0.06 0.981,-0.146 0.262,-0.227 0.297,-0.544 0.297,-0.68 0,-0.01 0,-0.036 0,-0.045 v -3.181 c 0,-0.025 0,-0.036 0,-0.061 0,-0.382 -0.146,-0.625 -0.282,-0.746 -0.231,-0.206 -0.479,-0.25 -0.614,-0.25 -0.055,-0.01 -3.946,-1.113 -3.946,-1.113 -0.574,-0.211 -0.599,-0.499 -0.599,-0.564 v -2.683 c 0,-0.422 0.101,-0.533 0.161,-0.583 0.065,-0.045 0.201,-0.02 0.236,-0.005 l 3.75,0.896 c 0.488,0.085 0.614,0.292 0.614,0.402 v 1.948 c 0.01,0.478 -0.081,0.584 -0.081,0.584 l -3.206,-0.891 c -0.363,-0.151 -0.378,-0.353 -0.378,-0.357 l 0.025,-1.053 c 0,-0.03 0.02,-0.116 0.02,-0.116 0.015,0 0.096,0 0.146,0.025 0,0 1.691,0.413 2.089,0.518 0,0.11 0,0.182 0,0.338 -0.433,-0.136 -1.052,-0.313 -1.052,-0.313 -0.187,-0.07 -0.363,0.045 -0.408,0.201 -0.061,0.182 0.03,0.363 0.216,0.403 l 1.47,0.458 c 0.105,0.035 0.207,0.024 0.282,-0.045 0.085,-0.06 0.136,-0.161 0.136,-0.252 v -1.042 c 0,-0.16 -0.096,-0.292 -0.247,-0.312 l -2.285,-0.569 c -0.04,-0.014 -0.423,-0.135 -0.729,0.072 -0.121,0.085 -0.282,0.267 -0.282,0.603 l -0.025,1.073 c -0.01,0.055 -0.02,0.618 0.805,0.971 l 3.196,0.886 c 0.09,0.046 0.342,0.09 0.559,-0.05 0.292,-0.182 0.403,-0.548 0.393,-1.133 v -1.948 c 0,0 0.081,-0.795 -1.122,-1.042 l -3.69,-0.87 c 0,0.006 -0.423,-0.156 -0.805,0.106 z m 4.686,5.462 h -0.02 z" id="path108"/>
</g>
<g id="g114" transform="matrix(0.92958228,0,0,0.92958228,-145.65718,-55.715444)">
	<path fill="#004ea2" d="m 255.998,190.822 c -0.307,0.176 -0.453,0.543 -0.453,1.072 v 2.627 c 0,-0.03 -0.141,0.76 1.032,1.319 l 3.986,1.46 c 0.021,0.024 0.065,0.024 0.106,0.024 0.121,0.01 0.337,0.066 0.312,0.453 v 3.217 c 0.015,0.07 0,0.16 -0.03,0.176 -0.061,0.04 -0.182,0.044 -0.398,-0.016 l -3.841,-1.454 c -0.125,-0.021 -0.488,-0.121 -0.513,-0.554 v -2.074 c 0.07,-0.069 0.216,-0.125 0.594,0 l 2.658,1.088 c 0.105,0.025 0.372,0.116 0.372,0.422 v 0.981 c -0.065,0.025 -0.151,0.061 -0.372,-0.009 0,0 -1.435,-0.574 -1.787,-0.725 0.01,-0.101 0.01,-0.136 0.03,-0.286 0.251,0.105 0.498,0.216 0.498,0.216 0.187,0.07 0.368,-0.01 0.438,-0.172 0.061,-0.155 -0.015,-0.357 -0.176,-0.427 l -0.916,-0.383 c -0.101,-0.041 -0.216,-0.025 -0.302,0.02 -0.086,0.045 -0.151,0.146 -0.151,0.247 l -0.091,0.981 c 0,0.131 0.065,0.267 0.202,0.322 l 2.033,0.805 c 0.357,0.126 0.654,0.116 0.896,-0.024 0.292,-0.176 0.347,-0.473 0.357,-0.519 v -1.027 c 0,-0.659 -0.543,-0.966 -0.835,-1.042 l -2.632,-1.083 c -0.508,-0.165 -0.891,-0.16 -1.153,0.025 -0.282,0.211 -0.317,0.544 -0.317,0.58 v 2.093 c 0.035,0.795 0.665,1.112 0.997,1.168 l 3.795,1.44 c 0.423,0.135 0.771,0.11 1.007,-0.066 0.267,-0.217 0.297,-0.544 0.297,-0.674 0,-0.03 0,-0.046 0,-0.056 v -3.182 c 0,-0.025 0,-0.035 0,-0.055 0,-0.389 -0.146,-0.63 -0.282,-0.75 -0.216,-0.226 -0.453,-0.287 -0.579,-0.287 -0.02,-0.005 -3.956,-1.455 -3.956,-1.455 -0.599,-0.297 -0.634,-0.589 -0.634,-0.649 l 0.01,-2.697 c 0,-0.327 0.055,-0.483 0.141,-0.529 0.056,-0.045 0.191,-0.015 0.236,0.021 l 3.74,1.197 c 0.634,0.187 0.644,0.483 0.644,0.489 v 1.963 c 0.01,0.463 -0.081,0.569 -0.091,0.569 l -3.176,-1.193 c -0.383,-0.196 -0.398,-0.408 -0.398,-0.418 l 0.025,-1.067 c 0,-0.01 0.015,-0.065 0.015,-0.081 0.005,0.016 0.146,0.046 0.146,0.046 0,0 1.722,0.578 2.094,0.704 0,0.116 0,0.171 0,0.327 -0.443,-0.166 -1.042,-0.402 -1.042,-0.402 -0.156,-0.071 -0.362,0 -0.407,0.176 -0.081,0.161 0.01,0.367 0.171,0.418 l 1.475,0.579 c 0.101,0.045 0.211,0.045 0.302,-0.02 0.096,-0.065 0.151,-0.161 0.151,-0.262 v -1.052 c 0,-0.141 -0.096,-0.262 -0.227,-0.308 l -2.29,-0.76 c -0.036,-0.015 -0.418,-0.191 -0.735,0.025 -0.136,0.066 -0.297,0.247 -0.297,0.599 l -0.03,1.077 c 0,0.03 -0.025,0.599 0.79,1.007 l 3.181,1.152 c 0.101,0.07 0.363,0.131 0.594,-0.004 0.282,-0.162 0.413,-0.539 0.398,-1.127 v -1.938 c 0,0 0.06,-0.765 -1.103,-1.118 l -3.694,-1.188 c -0.015,0.002 -0.443,-0.205 -0.815,0.048 z" id="path112"/>
</g>
<g id="g118" transform="matrix(0.92958228,0,0,0.92958228,-145.65718,-55.715444)">
	<path fill="#004ea2" d="m 261.514,158.166 c -1.324,-0.226 -2.537,0.483 -2.733,1.595 -0.176,1.113 0.75,2.175 2.063,2.391 1.324,0.227 2.552,-0.473 2.733,-1.585 0.182,-1.113 -0.734,-2.175 -2.063,-2.401 z" id="path116"/>
</g>
<g id="g122" transform="matrix(0.92958228,0,0,0.92958228,-145.65718,-55.715444)">
	<path fill="#004ea2" d="m 267.745,160.646 c -1.334,-0.091 -2.481,0.735 -2.557,1.848 -0.081,1.112 0.941,2.099 2.274,2.199 1.339,0.09 2.482,-0.735 2.563,-1.862 0.081,-1.106 -0.941,-2.083 -2.28,-2.185 z" id="path120"/>
</g>
<g id="g126" transform="matrix(0.92958228,0,0,0.92958228,-145.65718,-55.715444)">
	<path fill="#004ea2" d="m 274.384,162.539 c -1.313,-0.237 -2.536,0.479 -2.733,1.586 -0.191,1.087 0.73,2.185 2.053,2.4 1.324,0.227 2.552,-0.482 2.733,-1.585 0.192,-1.097 -0.719,-2.174 -2.053,-2.401 z" id="path124"/>
</g>
<g id="g130" transform="matrix(0.92958228,0,0,0.92958228,-145.65718,-55.715444)">
	<path fill="#004ea2" d="m 319.811,158.166 c -1.328,0.226 -2.262,1.289 -2.064,2.401 0.182,1.112 1.404,1.812 2.719,1.601 1.338,-0.232 2.254,-1.294 2.072,-2.417 -0.192,-1.102 -1.419,-1.812 -2.727,-1.585 z" id="path128"/>
</g>
<g id="g134" transform="matrix(0.92958228,0,0,0.92958228,-145.65718,-55.715444)">
	<path fill="#004ea2" d="m 313.871,161.11 c -1.34,0.09 -2.355,1.077 -2.291,2.199 0.096,1.108 1.25,1.939 2.582,1.838 1.34,-0.09 2.346,-1.077 2.27,-2.2 -0.071,-1.112 -1.227,-1.948 -2.561,-1.837 z" id="path132"/>
</g>
<g id="g138" transform="matrix(0.92958228,0,0,0.92958228,-145.65718,-55.715444)">
	<path fill="#004ea2" d="m 307.161,162.766 c -1.324,0.237 -2.23,1.314 -2.039,2.411 0.181,1.112 1.403,1.817 2.723,1.59 1.334,-0.241 2.24,-1.308 2.059,-2.41 -0.191,-1.103 -1.425,-1.818 -2.743,-1.591 z" id="path136"/>
</g>
<g id="g142" transform="matrix(0.92958228,0,0,0.92958228,-145.65718,-55.715444)">
	<path fill="#004ea2" d="m 321.381,181.64 c -1.324,0.217 -2.246,1.294 -2.059,2.391 0.191,1.097 1.404,1.828 2.732,1.596 1.324,-0.222 2.24,-1.289 2.059,-2.396 -0.181,-1.087 -1.41,-1.817 -2.732,-1.591 z" id="path140"/>
</g>
<g id="g146" transform="matrix(0.92958228,0,0,0.92958228,-145.65718,-55.715444)">
	<path fill="#004ea2" d="m 315.023,183.795 c -1.334,0.101 -2.352,1.087 -2.285,2.194 0.092,1.118 1.232,1.939 2.582,1.853 1.338,-0.106 2.361,-1.077 2.275,-2.189 -0.089,-1.123 -1.234,-1.949 -2.572,-1.858 z" id="path144"/>
</g>
<g id="g150" transform="matrix(0.92958228,0,0,0.92958228,-145.65718,-55.715444)">
	<path fill="#004ea2" d="m 308.092,185.471 c -1.313,0.227 -2.225,1.313 -2.039,2.401 0.183,1.112 1.415,1.817 2.729,1.6 1.329,-0.236 2.255,-1.318 2.063,-2.416 -0.191,-1.097 -1.413,-1.812 -2.753,-1.585 z" id="path148"/>
</g>
<g id="g154" transform="matrix(0.92958228,0,0,0.92958228,-145.65718,-55.715444)">
	<path fill="#004ea2" d="m 322.604,204.281 c -1.324,0.202 -2.24,1.288 -2.061,2.396 0.184,1.102 1.416,1.816 2.719,1.591 1.33,-0.217 2.256,-1.289 2.074,-2.391 -0.195,-1.098 -1.414,-1.828 -2.732,-1.596 z" id="path152"/>
</g>
<g id="g158" transform="matrix(0.92958228,0,0,0.92958228,-145.65718,-55.715444)">
	<path fill="#004ea2" d="m 316.453,206.953 c -1.34,0.116 -2.342,1.087 -2.266,2.21 0.07,1.123 1.223,1.932 2.557,1.842 1.344,-0.085 2.361,-1.087 2.285,-2.189 -0.086,-1.118 -1.226,-1.954 -2.576,-1.863 z" id="path156"/>
</g>
<g id="g162" transform="matrix(0.92958228,0,0,0.92958228,-145.65718,-55.715444)">
	<path fill="#004ea2" d="m 309.531,208.629 c -1.328,0.226 -2.229,1.303 -2.038,2.4 0.192,1.113 1.415,1.812 2.728,1.586 1.324,-0.222 2.244,-1.314 2.055,-2.401 -0.198,-1.107 -1.421,-1.812 -2.745,-1.585 z" id="path160"/>
</g>
<g id="g166" transform="matrix(0.92958228,0,0,0.92958228,-145.65718,-55.715444)">
	<path fill="#004ea2" d="m 259.576,181.53 c -1.324,-0.231 -2.537,0.498 -2.718,1.596 -0.191,1.103 0.725,2.189 2.053,2.401 1.324,0.216 2.547,-0.499 2.729,-1.596 0.181,-1.098 -0.735,-2.18 -2.064,-2.401 z" id="path164"/>
</g>
<g id="g170" transform="matrix(0.92958228,0,0,0.92958228,-145.65718,-55.715444)">
	<path fill="#004ea2" d="m 266.114,183.704 c -1.333,-0.161 -2.516,0.615 -2.652,1.731 -0.121,1.112 0.851,2.144 2.189,2.29 1.329,0.146 2.517,-0.619 2.637,-1.737 0.127,-1.106 -0.85,-2.138 -2.174,-2.284 z" id="path168"/>
</g>
<g id="g174" transform="matrix(0.92958228,0,0,0.92958228,-145.65718,-55.715444)">
	<path fill="#004ea2" d="m 273.196,185.371 c -1.314,-0.242 -2.542,0.473 -2.733,1.576 -0.191,1.106 0.73,2.173 2.054,2.41 1.324,0.217 2.552,-0.487 2.728,-1.585 0.191,-1.108 -0.72,-2.175 -2.049,-2.401 z" id="path172"/>
</g>
<g id="g178" transform="matrix(0.92958228,0,0,0.92958228,-145.65718,-55.715444)">
	<path fill="#004ea2" d="m 257.91,203.847 c -1.334,-0.226 -2.547,0.499 -2.743,1.596 -0.176,1.103 0.75,2.18 2.069,2.406 1.324,0.217 2.542,-0.498 2.728,-1.6 0.191,-1.099 -0.735,-2.175 -2.054,-2.402 z" id="path176"/>
</g>
<g id="g182" transform="matrix(0.92958228,0,0,0.92958228,-145.65718,-55.715444)">
	<path fill="#004ea2" d="m 264.645,206.042 c -1.349,-0.085 -2.491,0.74 -2.577,1.852 -0.076,1.118 0.941,2.108 2.274,2.2 1.35,0.085 2.497,-0.74 2.578,-1.847 0.08,-1.123 -0.941,-2.114 -2.275,-2.205 z" id="path180"/>
</g>
<g id="g186" transform="matrix(0.92958228,0,0,0.92958228,-145.65718,-55.715444)">
	<path fill="#004ea2" d="m 271.611,207.824 c -1.339,-0.227 -2.562,0.487 -2.753,1.59 -0.186,1.092 0.735,2.184 2.059,2.396 1.318,0.237 2.551,-0.473 2.732,-1.585 0.191,-1.097 -0.734,-2.16 -2.038,-2.401 z" id="path184"/>
</g>
<g id="g190" transform="matrix(0.92958228,0,0,0.92958228,-145.65718,-55.715444)">
	<path fill="#004ea2" d="m 325.135,165.192 c -7.842,4.097 -21.724,5.617 -21.87,5.643 -0.271,0.02 -0.464,0.271 -0.453,0.529 0.044,0.261 0.271,0.467 0.543,0.448 0.614,-0.061 13.414,-1.496 21.563,-5.441 0.076,1.218 0.67,10.343 0.717,10.947 -1.863,0.791 -12.061,4.802 -22.087,5.682 -0.262,0.041 -0.454,0.253 -0.454,0.479 0,0.02 0,0.035 0,0.045 0.011,0.262 0.237,0.488 0.515,0.452 11.451,-1.288 22.613,-5.848 22.724,-5.894 l 0.318,-0.136 -0.861,-13.106 z" id="path188"/>
</g>
<g id="g194" transform="matrix(0.92958228,0,0,0.92958228,-145.65718,-55.715444)">
	<path fill="#004ea2" d="m 256.34,165.192 c 7.837,4.097 21.819,5.728 21.965,5.753 0.271,0.025 0.463,0.262 0.453,0.519 -0.035,0.277 -0.271,0.478 -0.533,0.458 -0.619,-0.065 -13.53,-1.606 -21.674,-5.551 -0.09,1.218 -0.679,10.343 -0.725,10.947 1.883,0.791 12.065,4.802 22.091,5.682 0.252,0.041 0.458,0.253 0.458,0.479 0,0.02 0,0.035 0,0.045 -0.015,0.262 -0.252,0.488 -0.514,0.452 -11.451,-1.288 -22.609,-5.848 -22.725,-5.894 l -0.317,-0.136 0.846,-13.106 z" id="path192"/>
</g>
<g id="g198" transform="matrix(0.92958228,0,0,0.92958228,-145.65718,-55.715444)">
	<path fill="#004ea2" d="m 326.74,188.088 c -7.852,4.128 -23.223,5.542 -23.385,5.542 -0.262,0.04 -0.453,0.271 -0.427,0.534 0.019,0.256 0.246,0.463 0.518,0.443 0.624,-0.061 14.925,-1.389 23.083,-5.341 0.074,1.234 0.68,10.344 0.709,10.958 -1.865,0.794 -12.598,5.143 -22.514,5.687 -0.256,0.021 -0.462,0.222 -0.462,0.482 0,0 0,0.025 0,0.042 0.019,0.267 0.25,0.458 0.518,0.448 11.019,-0.61 23.048,-5.844 23.164,-5.889 l 0.316,-0.146 -0.859,-13.097 z" id="path196"/>
</g>
<g id="g202" transform="matrix(0.92958228,0,0,0.92958228,-145.65718,-55.715444)">
	<path fill="#004ea2" d="m 254.759,188.088 c 7.852,4.128 23.219,5.542 23.379,5.542 0.267,0.04 0.473,0.271 0.438,0.534 -0.025,0.256 -0.262,0.463 -0.528,0.443 -0.614,-0.061 -14.923,-1.389 -23.072,-5.341 -0.076,1.234 -0.665,10.344 -0.715,10.958 1.862,0.794 12.613,5.143 22.514,5.687 0.262,0.021 0.453,0.222 0.453,0.482 0,0 0,0.025 0,0.042 -0.01,0.267 -0.236,0.458 -0.499,0.448 -11.038,-0.61 -23.057,-5.844 -23.168,-5.889 l -0.317,-0.146 0.861,-13.097 z" id="path200"/>
</g>
<g id="g206" transform="matrix(0.92958228,0,0,0.92958228,-145.65718,-55.715444)">
	<path fill="#004ea2" d="m 282.88,174.639 4.047,-0.136 c 1.867,-0.387 1.484,-2.692 1.484,-2.692 -0.15968,-1.87445 -0.966,-1.586 -1.822,-1.933 -1.28122,-0.16051 -3.367,0.196 -3.367,0.196 -1.439,-0.12302 -1.052,-1.243 -1.052,-1.243 -0.045,-1.828 -1.439,-1.888 -1.439,-1.888 -1.485,-0.09 -1.54,2.744 -1.54,2.744 l 0.055,10.188 c 0,0 0.136,1.112 0.227,1.923 0.101,0.82 1.158,1.021 1.731,1.057 0.579,0.055 1.057,-0.281 1.057,-0.281 l 2.356,-0.046 c 2.401,-0.251 2.829,-1.067 3.125,-1.837 0.01,-0.035 0.024,-0.091 0.035,-0.125 0.227,-0.836 -0.035,-2.603 -0.035,-2.603 -0.443,-2.215 -4.862,-1.44 -4.862,-1.44 -1.289,0.091 -1.153,-0.875 -1.153,-0.875 -0.05,-0.963 1.153,-1.009 1.153,-1.009 z m -0.09,3.81 h 1.601 c 0.574,0 1.058,0.454 1.058,1.027 0,0.554 -0.483,1.022 -1.058,1.022 h -1.601 c -0.584,0 -1.062,-0.468 -1.062,-1.022 0,-0.573 0.478,-1.027 1.062,-1.027 z m -0.912,-5.959 c 0,-0.594 0.529,-1.072 1.173,-1.072 h 1.782 c 0.645,0 1.178,0.479 1.178,1.072 0,0.564 -0.533,1.052 -1.178,1.052 h -1.782 c -0.644,0 -1.173,-0.488 -1.173,-1.052 z" id="path204" sodipodi:nodetypes="cccccccccccccccccccssssssssssssss"/>
</g>
<g id="g210" transform="matrix(0.92958228,0,0,0.92958228,-145.65718,-55.715444)">
	<path fill="#004ea2" d="m 292.197,169.022 9.015,0.091 c 0,0 1.589,0.101 1.589,1.304 0,0 -0.236,1.64 -1.589,1.686 l -2.391,0.135 c 0,0 -0.856,-0.146 -0.856,0.952 0,0 -0.251,1.062 1.198,1.208 0,0 3.74,0.106 4.077,1.691 0,0 1.303,1.873 0.394,4.374 0,0 -1.113,2.819 -2.125,0.035 l -0.327,-1.827 -0.252,-0.71 c 0,0 -0.478,-0.967 -1.625,-0.967 0,0 -1.339,-0.246 -1.309,1.63 l -0.222,3.071 c 0,0 -0.583,1.837 -1.54,1.837 0,0 -1.646,0.197 -1.646,-2.355 l -0.141,-2.979 c 0,0 0.287,-1.158 -1.445,-1.204 0,0 -1.726,-0.246 -1.635,2.215 l -0.146,1.389 c 0,0 -0.327,1.359 -1.233,1.294 0,0 -1.304,0.297 -1.257,-1.963 l -0.046,-2.98 c 0,0 0.434,-2.058 2.346,-2.114 l 1.404,-0.045 c 0,0 1.927,0.191 1.973,-1.6 0,0 -0.206,-1.188 -1.691,-1.188 l -2.25,-0.044 c 0,0 -1.112,0.1 -1.067,-1.54 0,0 -0.136,-1.395 2.013,-1.395 h 0.784 z" id="path208"/>
</g>
<g id="g214" transform="matrix(0.92958228,0,0,0.92958228,-145.65718,-55.715444)">
	<path fill="#004ea2" d="m 282.498,191.184 4.656,0.1 c 0,0 1.54,-2.979 3.271,-3.029 0,0 1.682,-0.247 3.025,3.029 l 6.674,-0.195 c 0,0 2.939,-0.046 3.187,2.169 l 0.73249,3.74043 c 0,0 1.17851,6.00957 2.91551,9.32157 0,0 1.44,1.394 0.296,2.446 0,0 -1.494,1.449 -3.376,-1.873 0,0 -1.772,-2.113 -3.785,-11.339 0,0 -0.0625,-0.40376 -0.2014,-0.85566 -0.15586,-0.50692 -0.43183,-1.06574 -1.2936,-1.01234 l -4.31717,0.101 c 0,0 0.88817,3.06182 1.33039,4.65099 0.22734,0.86064 0.56713,1.79214 0.72078,2.53186 0.20567,0.76886 0.54824,1.49622 0.84476,2.23561 0.32516,0.81081 0.75478,1.58132 1.02421,2.41232 0.1765,0.54438 0.51388,1.11603 0.38395,1.67337 -0.10368,0.44471 -0.42871,0.92808 -0.86524,1.06209 -0.60337,0.18521 -1.31808,-0.15323 -1.81358,-0.54416 -0.50237,-0.39635 -0.68632,-1.08355 -0.96442,-1.65984 -0.31295,-0.6485 -0.78692,-2.01175 -0.78692,-2.01175 l -1.73889,-6.15775 -0.73958,-3.18782 c -0.0757,-0.53785 -0.4104,-0.98209 -1.03994,-0.98982 -0.69827,-0.009 -0.9727,0.35932 -1.12076,1.04979 l -0.6264,3.25686 c 0,0 -0.78371,4.25262 -1.86702,7.02596 -0.29841,0.76394 -0.53088,1.2267 -0.92613,1.75829 -0.33728,0.45362 -0.70111,0.94126 -1.20925,1.18887 -0.47438,0.23116 -1.09109,0.42728 -1.56975,0.20513 -0.47057,-0.2184 -0.78162,-0.79354 -0.8422,-1.30877 -0.0812,-0.69068 0.27331,-1.22951 0.69128,-1.96846 0,0 1.29975,-2.46725 2.00431,-5.26033 l 1.34134,-5.89213 c -1.11675,-0.0361 -2.98764,-0.14901 -4.05146,-0.17787 -0.0753,-0.002 -0.14949,0.0212 -0.22254,0.0192 -0.28082,0.0728 -0.65993,0.36904 -0.98873,1.58234 l -1.923,6.131 c 0,0 -1.35662,3.62077 -1.64421,4.68435 -0.28759,1.06358 -0.19666,1.15057 -0.48047,1.64709 -0.22249,0.38924 -0.51888,0.78243 -0.92143,0.97981 -0.41278,0.2024 -0.9308,0.25787 -1.37289,0.13175 -0.42608,-0.12155 -0.89056,-0.39537 -1.057,-0.806 -0.23767,-0.58635 0.242,-1.686 0.282,-1.877 0.045,-0.192 0.775,-2.023 0.775,-2.023 l 2.788,-8.346 0.78181,-3.01399 c 0.0992,-0.54571 0.78976,-1.25304 2.13819,-1.50601 0.8053,-0.15426 1.15913,-0.0976 1.882,-0.099 z" id="path212" sodipodi:nodetypes="cccccccccccsccccaaaaaacccsccsaaaacccscccsaaaaccccccc"/>
</g>
<g id="g396" transform="matrix(0.92958228,0,0,0.92958228,-145.65718,-55.715444)">
	<g id="g292">
		<g id="g218">
			<path fill="#004ea2" d="m 291.835,223.336 c -0.116,0.111 -0.106,0.333 0.024,0.453 3.805,3.353 8.678,5.532 14.114,6.297 0.17,0.024 0.341,-0.101 0.362,-0.267 0.015,-0.191 -0.1,-0.342 -0.267,-0.377 -5.385,-0.761 -10.022,-2.819 -13.796,-6.151 -0.11,-0.115 -0.322,-0.09 -0.437,0.045 z" id="path216"/>
		</g>
		<g id="g222">
			<path fill="#004ea2" d="m 287.631,218.122 c -0.161,0.09 -0.216,0.282 -0.141,0.433 0.04,0.066 0.649,1.243 2.039,2.879 0.13,0.136 0.322,0.155 0.467,0.045 0.136,-0.126 0.146,-0.316 0.025,-0.462 -1.339,-1.576 -1.948,-2.734 -1.963,-2.759 -0.069,-0.146 -0.27,-0.222 -0.427,-0.136 z" id="path220"/>
		</g>
		<g id="g226">
			<path fill="#004ea2" d="m 289.469,225.33 c -0.131,0.146 -0.106,0.352 0.02,0.468 4.958,4.258 10.68,6.785 16.972,7.484 0.167,0.02 0.343,-0.11 0.362,-0.282 0.025,-0.181 -0.109,-0.342 -0.281,-0.348 -6.176,-0.704 -11.763,-3.175 -16.62,-7.348 -0.141,-0.111 -0.347,-0.111 -0.453,0.026 z" id="path224"/>
		</g>
		<g id="g230">
			<path fill="#004ea2" d="m 283.268,218.076 c -0.151,0.081 -0.201,0.277 -0.11,0.433 0.055,0.111 1.354,2.356 4.042,5.119 0.125,0.137 0.332,0.137 0.453,0.015 0.136,-0.126 0.136,-0.327 0.01,-0.467 -2.612,-2.693 -3.93,-4.963 -3.94,-4.984 -0.093,-0.156 -0.299,-0.201 -0.455,-0.116 z" id="path228"/>
		</g>
		<g id="g234">
			<path fill="#004ea2" d="m 295.438,229.703 c -0.316,1.833 0.122,2.764 0.146,2.798 1.858,4.172 6.584,4.511 6.786,4.52 1.394,0.282 2.027,-0.7 2.154,-1.269 0.019,-0.689 -0.146,-1.202 -0.51,-1.561 -0.628,-0.628 -1.529,-0.594 -1.563,-0.594 -0.021,0 -3.66,-0.246 -3.716,-2.517 0,-0.176 -0.161,-0.316 -0.327,-0.316 -0.186,0 -0.332,0.151 -0.322,0.333 0.071,2.853 4.173,3.14 4.344,3.14 0.044,0.02 0.71,0 1.118,0.403 0.237,0.242 0.342,0.594 0.332,1.021 -0.01,0.045 -0.271,0.951 -1.429,0.725 -0.081,0 -4.581,-0.352 -6.277,-4.158 -0.01,-0.025 -0.388,-0.805 -0.091,-2.411 0.02,-0.187 -0.09,-0.342 -0.272,-0.377 -0.182,-0.034 -0.337,0.082 -0.373,0.263 z" id="path232"/>
		</g>
		<g id="g238">
			<path fill="#004ea2" d="m 301.6,223.583 c -3.207,0.625 -4.837,3.004 -4.908,3.111 -0.101,0.13 -0.065,0.336 0.091,0.438 0.146,0.101 0.342,0.06 0.453,-0.09 0,-0.025 1.555,-2.255 4.499,-2.824 2.391,-0.453 5.023,0.271 7.832,2.189 0.064,0.056 2.211,1.867 3.85,1.667 0.535,-0.056 0.941,-0.292 1.244,-0.729 0.127,-0.111 0.377,-0.499 0.309,-1.018 -0.076,-0.668 -0.654,-1.313 -1.662,-1.912 -0.045,-0.036 -1.701,-1.249 -4.398,0.68 -0.047,0.03 -0.047,0.074 -0.066,0.121 -2.564,-1.497 -5,-2.061 -7.244,-1.633 z m 11.339,1.364 c 1.066,0.629 1.34,1.132 1.385,1.45 0.045,0.336 -0.137,0.534 -0.162,0.543 -0.211,0.302 -0.473,0.454 -0.811,0.499 -1.373,0.156 -3.356,-1.535 -3.377,-1.54 -0.207,-0.141 -0.383,-0.232 -0.568,-0.353 2.199,-1.51 3.477,-0.624 3.533,-0.599 z" id="path236"/>
		</g>
		<g id="g242">
			<path fill="#004ea2" d="m 306.108,223.965 c -0.135,0.116 -0.155,0.322 -0.035,0.458 0.116,0.136 0.317,0.136 0.452,0.025 5.488,-4.852 9.474,-0.524 9.63,-0.322 2.477,2.904 -0.393,5.462 -0.52,5.577 -2.627,1.968 -5.598,-0.613 -5.732,-0.725 -6.433,-4.827 -10.354,-1.183 -10.389,-1.142 -0.126,0.121 -0.136,0.327 -0.01,0.462 0.111,0.125 0.327,0.131 0.453,0 0.146,-0.136 3.579,-3.286 9.538,1.178 0.01,0 3.479,3.035 6.553,0.714 0.051,-0.035 3.484,-3.095 0.596,-6.493 -0.05,-0.054 -4.576,-5.016 -10.536,0.268 z" id="path240"/>
		</g>
		<g id="g246">
			<path fill="#004ea2" d="m 308.655,217.739 c -0.427,0.091 -0.745,0.327 -0.94,0.665 -0.368,0.695 -0.029,1.601 -0.011,1.636 0.493,1.821 -0.091,2.707 -0.091,2.732 -0.1,0.136 -0.064,0.337 0.091,0.438 0.146,0.105 0.343,0.056 0.454,-0.09 0.023,-0.035 0.74,-1.123 0.16,-3.282 -0.076,-0.232 -0.227,-0.775 -0.021,-1.127 0.091,-0.181 0.257,-0.292 0.503,-0.353 0.016,-0.005 0.57,-0.101 1.113,0.307 0.65,0.479 1.041,1.51 1.148,2.971 0.02,0.186 0.172,0.316 0.352,0.291 0.166,0 0.307,-0.151 0.293,-0.337 -0.127,-1.695 -0.6,-2.853 -1.42,-3.467 -0.79,-0.575 -1.585,-0.409 -1.631,-0.384 z" id="path244"/>
		</g>
		<g id="g250">
			<path fill="#004ea2" d="m 319.865,218.338 c -3.479,1.677 -2.729,7.238 -2.699,7.49 0.025,0.171 0.182,0.297 0.363,0.272 0.172,-0.021 0.299,-0.197 0.283,-0.363 -0.025,-0.056 -0.721,-5.351 2.289,-6.794 0.342,-0.086 1.561,-0.278 1.994,0.201 0.111,0.151 0.16,0.327 0.16,0.544 0,0.317 -0.117,0.669 -0.227,0.986 -0.252,0.283 -1.736,2.12 -1.791,5.708 0,0.025 -0.061,2.799 -1.666,3.892 -0.871,0.563 -2.064,0.563 -3.564,-0.025 -0.16,-0.07 -0.354,0.025 -0.412,0.181 -0.08,0.156 0.01,0.362 0.166,0.417 1.717,0.68 3.119,0.66 4.182,-0.056 1.893,-1.268 1.939,-4.283 1.939,-4.393 0.061,-3.574 1.654,-5.325 1.67,-5.351 l 0.045,-0.046 0.021,-0.055 c 0.393,-0.987 0.381,-1.736 -0.047,-2.22 -0.768,-0.875 -2.501,-0.444 -2.706,-0.388 z" id="path248"/>
		</g>
		<g id="g254">
			<path fill="#004ea2" d="m 305.953,226.905 c -0.172,0 -0.323,0.146 -0.323,0.327 0,0.111 0.016,3.151 1.032,6.609 0.056,0.101 2.425,4.52 0.343,6.488 -0.137,0.125 -0.137,0.327 -0.026,0.457 0.125,0.132 0.327,0.132 0.458,0.016 2.451,-2.32 -0.061,-7.006 -0.16,-7.223 -0.988,-3.287 -0.998,-6.321 -0.998,-6.347 10e-4,-0.181 -0.135,-0.327 -0.326,-0.327 z" id="path252"/>
		</g>
		<g id="g258">
			<path fill="#004ea2" d="m 308.771,228.883 c -0.01,0.105 -0.227,2.526 1.043,5.712 0.035,0.045 2.389,5.416 -1.213,8.069 -0.146,0.09 -0.167,0.297 -0.066,0.452 0.102,0.137 0.307,0.162 0.442,0.071 4.032,-2.97 1.47,-8.798 1.44,-8.863 -1.223,-2.989 -1.002,-5.346 -1.002,-5.381 0.016,-0.167 -0.111,-0.327 -0.293,-0.352 -0.17,-0.021 -0.34,0.116 -0.351,0.292 z" id="path256"/>
		</g>
		<g id="g262">
			<path fill="#004ea2" d="m 310.241,234.505 c -0.177,0.045 -0.292,0.216 -0.267,0.387 0.046,0.181 0.201,0.292 0.396,0.246 0.293,-0.055 1.164,-0.145 1.551,0.142 0.146,0.101 0.354,0.065 0.449,-0.086 0.115,-0.146 0.068,-0.353 -0.076,-0.453 -0.702,-0.483 -1.911,-0.257 -2.053,-0.236 z" id="path260"/>
		</g>
		<g id="g266">
			<path fill="#004ea2" d="m 310.639,238.074 c -0.006,0.171 0.127,0.333 0.309,0.333 l 0.904,0.065 c 0.182,0.01 0.328,-0.111 0.342,-0.297 0.01,-0.176 -0.125,-0.337 -0.305,-0.357 l -0.898,-0.045 c -0.18,-0.026 -0.337,0.12 -0.352,0.301 z" id="path264"/>
		</g>
		<g id="g270">
			<path fill="#004ea2" d="m 326.766,224.489 c -2.291,0.503 -3.947,3.423 -4.012,3.539 l -0.01,0.045 -0.016,0.03 c -0.789,2.959 -5.299,3.559 -5.344,3.568 -4.738,0.378 -5.779,3.765 -5.824,3.916 -0.76,5.491 4.258,7.258 4.303,7.268 4.309,2.074 5.295,4.681 5.301,4.701 2.436,5.25 5.803,7.097 5.939,7.188 v 0 l 0.67,0.352 c 0.916,0.62 1.801,0.872 2.615,0.71 0.973,-0.19 1.471,-0.906 1.496,-0.926 0.371,-0.66 0.463,-1.248 0.25,-1.767 -0.387,-0.976 -1.6,-1.318 -1.645,-1.329 -3.68,-1.197 -6.412,-6.96 -6.441,-7.011 -1.656,-3.287 -5.195,-4.807 -5.352,-4.872 l -0.035,-0.01 -0.029,-0.015 c -2.225,-0.372 -2.623,-2.647 -2.633,-2.748 -0.191,-0.539 -0.156,-0.957 0.07,-1.319 0.609,-0.972 2.461,-1.203 2.48,-1.203 5.154,-0.176 7.264,-3.387 7.35,-3.523 0.91,-1.978 1.791,-2.41 1.791,-2.41 0.973,-0.352 1.611,-0.876 1.867,-1.595 0.379,-0.952 -0.121,-1.838 -0.146,-1.883 l -0.029,-0.056 -0.061,-0.044 c -0.803,-0.581 -1.675,-0.797 -2.555,-0.606 z m 0.134,0.635 c 0.676,-0.156 1.336,0 1.969,0.453 0.057,0.09 0.172,0.368 0.172,0.765 0,0.166 -0.025,0.353 -0.08,0.519 -0.203,0.534 -0.701,0.921 -1.516,1.213 -0.061,0.02 -1.102,0.498 -2.109,2.693 0,0 -2.018,3.03 -6.846,3.196 -0.1,0.015 -2.193,0.262 -2.963,1.495 -0.344,0.544 -0.389,1.148 -0.162,1.837 0,-0.02 0.479,2.764 3.15,3.226 l -0.07,-0.019 c 0.037,0.009 3.469,1.504 5.035,4.555 0.1,0.236 2.877,6.049 6.818,7.343 0.02,0.01 0.977,0.292 1.248,0.937 0.121,0.342 0.051,0.75 -0.23,1.178 -0.021,0.055 -1.053,1.51 -3.217,0.024 l -0.689,-0.382 c -0.035,-0.015 -3.311,-1.828 -5.652,-6.845 -0.025,-0.09 -1.053,-2.834 -5.648,-5.054 -0.221,-0.065 -4.594,-1.621 -3.916,-6.538 0.025,-0.081 0.963,-3.066 5.256,-3.413 0.232,-0.02 5.008,-0.654 5.895,-4.032 l -0.025,0.081 c 0.014,-0.036 1.584,-2.81 3.58,-3.232 z" id="path268"/>
		</g>
		<g id="g274">
			<path fill="#004ea2" d="m 322.965,232.784 c -0.91,2.697 -0.936,4.671 -0.1,5.889 0.779,1.087 1.982,1.127 2.039,1.127 1.609,0.101 2.27,-1.484 2.379,-2.326 -0.045,-0.508 -0.135,-1.106 -0.588,-1.237 -0.453,-0.121 -0.861,0.423 -0.971,0.583 -0.09,0.156 -0.389,0.307 -0.559,0.357 -0.354,0.051 -0.635,-0.02 -0.781,-0.19 -0.336,-0.382 -0.201,-1.234 -0.141,-1.531 0.221,-0.619 0.568,-1.041 1.072,-1.264 1.016,-0.438 2.33,0.197 2.355,0.197 2.971,2.18 1.031,5.148 0.945,5.27 -1.877,3.277 -5.873,1.52 -6.045,1.465 -3.295,-1.516 -2.426,-6.8 -2.41,-6.846 0.016,-0.171 -0.092,-0.337 -0.277,-0.372 -0.164,-0.036 -0.336,0.09 -0.357,0.261 -0.061,0.247 -0.967,5.824 2.773,7.545 0.045,0.009 4.686,2.063 6.861,-1.711 0.014,-0.021 2.361,-3.595 -1.174,-6.156 -0.115,-0.05 -1.621,-0.79 -2.924,-0.247 -0.668,0.288 -1.158,0.842 -1.424,1.682 -0.045,0.146 -0.379,1.424 0.246,2.129 0.316,0.363 0.814,0.483 1.43,0.383 0.172,-0.045 0.719,-0.237 0.951,-0.619 0.076,-0.106 0.176,-0.207 0.268,-0.262 0.025,0.056 0.068,0.167 0.09,0.544 0,0 -0.268,1.807 -1.695,1.696 -0.057,0 -0.951,-0.035 -1.531,-0.86 -0.715,-1.017 -0.654,-2.864 0.182,-5.281 0.061,-0.181 -0.031,-0.357 -0.191,-0.417 -0.187,-0.056 -0.363,0.029 -0.423,0.191 z" id="path272"/>
		</g>
		<g id="g278">
			<path fill="#004ea2" d="m 314.143,247.31 c -0.025,0.136 -0.523,3.08 0.619,4.51 0.393,0.498 0.92,0.75 1.555,0.78 0.016,0 1.043,0.161 1.631,-0.509 0.408,-0.503 0.453,-1.223 0.141,-2.209 -0.023,-0.09 -0.613,-1.479 0.594,-2.229 0.061,-0.041 1.057,-0.715 2.623,0.75 0.137,0.13 0.338,0.121 0.463,-0.016 0.111,-0.125 0.111,-0.332 -0.01,-0.443 -1.994,-1.856 -3.387,-0.86 -3.447,-0.814 -1.305,0.814 -1.113,2.31 -0.836,2.99 0.236,0.705 0.227,1.263 -0.025,1.54 -0.338,0.397 -1.063,0.297 -1.063,0.297 -0.498,-0.035 -0.85,-0.207 -1.121,-0.534 -0.951,-1.198 -0.49,-3.956 -0.49,-3.976 0.816,-3.241 4.068,-2.562 4.193,-2.527 0.182,0.045 0.361,-0.056 0.408,-0.241 0.035,-0.167 -0.09,-0.337 -0.252,-0.383 -0.046,-0.001 -4.013,-0.872 -4.983,3.014 z" id="path276"/>
		</g>
		<g id="g282">
			<path fill="#004ea2" d="m 307.438,234.883 c -0.131,0.044 -2.878,0.925 -3.66,3.336 -0.538,1.671 0,3.624 1.616,5.804 l 0.025,0.025 0.044,0.03 c 0.771,0.594 2.739,2.39 2.493,3.593 -0.111,0.544 -0.68,0.951 -1.722,1.213 -0.183,0.076 -1.203,0.604 -1.305,1.44 -0.061,0.457 0.157,0.896 0.635,1.293 0.181,0.105 3.071,1.571 5.2,-0.438 0.064,-0.086 1.408,-1.591 1.268,-3.745 -0.111,-1.585 -0.986,-3.085 -2.602,-4.465 -0.047,-0.035 -1.717,-1.177 -1.893,-2.697 -0.081,-0.705 0.176,-1.369 0.759,-2.028 0.137,-0.136 0.111,-0.337 0,-0.453 -0.14,-0.136 -0.353,-0.116 -0.478,0.025 -0.715,0.779 -1.017,1.641 -0.917,2.537 0.202,1.802 2.048,3.08 2.129,3.136 1.449,1.227 2.25,2.581 2.346,3.976 0.137,1.883 -1.068,3.256 -1.092,3.277 -1.762,1.656 -4.269,0.392 -4.369,0.337 -0.217,-0.191 -0.353,-0.403 -0.353,-0.619 0,-0.015 0,-0.025 0.01,-0.045 0.046,-0.434 0.645,-0.821 0.886,-0.926 1.225,-0.297 1.974,-0.866 2.129,-1.687 0.021,-0.105 0.047,-0.221 0.047,-0.337 0,-1.701 -2.332,-3.554 -2.744,-3.86 -1.113,-1.511 -1.666,-2.864 -1.666,-4.068 0,-0.387 0.054,-0.76 0.17,-1.112 0.67,-2.084 3.196,-2.91 3.216,-2.925 0.142,-0.045 0.232,-0.181 0.232,-0.317 0,-0.021 0,-0.055 -0.016,-0.09 -0.051,-0.165 -0.233,-0.265 -0.388,-0.21 z" id="path280"/>
		</g>
		<g id="g286">
			<path fill="#004ea2" d="m 298.564,237.722 c -0.101,0.151 -0.056,0.352 0.08,0.453 3.15,2.155 5.255,1.998 5.346,1.998 0.186,-0.02 0.306,-0.181 0.291,-0.367 -0.019,-0.176 -0.166,-0.302 -0.351,-0.292 -0.006,0 -1.989,0.142 -4.914,-1.882 -0.15,-0.092 -0.351,-0.047 -0.452,0.09 z" id="path284"/>
		</g>
		<g id="g290">
			<path fill="#004ea2" d="m 297.412,240.218 c -0.091,0.156 -0.045,0.337 0.11,0.438 0.156,0.1 4.022,2.391 7.555,2.758 0.171,0.021 0.343,-0.091 0.353,-0.276 0.025,-0.192 -0.105,-0.337 -0.297,-0.357 -3.377,-0.338 -7.237,-2.653 -7.283,-2.674 -0.147,-0.096 -0.338,-0.049 -0.438,0.111 z" id="path288"/>
		</g>
	</g>
	<g id="g362">
		<g id="g296">
			<path fill="#004ea2" d="m 292.051,217.709 c -0.061,0.096 -4.988,9.352 -18.004,11.174 -0.171,0.025 -0.297,0.196 -0.262,0.367 0.01,0.176 0.181,0.292 0.362,0.272 13.343,-1.857 18.422,-11.421 18.467,-11.517 0.091,-0.155 0.025,-0.357 -0.136,-0.438 -0.161,-0.079 -0.352,-0.019 -0.427,0.142 z" id="path294"/>
		</g>
		<g id="g300">
			<path fill="#004ea2" d="m 296.399,217.639 c -0.07,0.121 -7.489,12.734 -22.816,14.445 -0.186,0.021 -0.307,0.176 -0.287,0.362 0.01,0.167 0.187,0.292 0.352,0.282 15.679,-1.757 23.229,-14.637 23.305,-14.762 0.09,-0.162 0.035,-0.363 -0.111,-0.458 -0.17,-0.076 -0.352,-0.02 -0.443,0.131 z" id="path298"/>
		</g>
		<g id="g304">
			<path fill="#004ea2" d="m 284.3,228.883 c -0.171,0.025 -0.288,0.207 -0.247,0.392 0.256,1.586 -0.105,2.376 -0.105,2.386 -1.711,3.82 -6.196,4.162 -6.251,4.162 -1.188,0.237 -1.439,-0.674 -1.475,-0.775 0,-0.383 0.111,-0.724 0.343,-0.951 0.402,-0.417 1.086,-0.402 1.086,-0.402 0.202,-0.015 4.314,-0.297 4.374,-3.156 0,-0.176 -0.141,-0.317 -0.307,-0.337 -0.186,0 -0.332,0.145 -0.337,0.316 -0.05,2.266 -3.709,2.527 -3.73,2.537 -0.015,-0.01 -0.931,-0.021 -1.54,0.579 -0.377,0.363 -0.543,0.871 -0.523,1.495 0.13,0.624 0.77,1.621 2.199,1.338 0.156,-0.015 4.882,-0.352 6.75,-4.535 0.015,-0.03 0.453,-0.937 0.136,-2.773 -0.021,-0.18 -0.192,-0.292 -0.373,-0.276 z" id="path302"/>
		</g>
		<g id="g308">
			<path fill="#004ea2" d="m 271.269,224.66 c -0.021,-0.045 -0.021,-0.101 -0.055,-0.125 -2.708,-1.923 -4.364,-0.7 -4.435,-0.655 -0.981,0.579 -1.56,1.223 -1.641,1.903 -0.051,0.499 0.186,0.911 0.342,1.042 0.272,0.398 0.695,0.635 1.198,0.705 1.671,0.191 3.8,-1.626 3.886,-1.702 2.788,-1.877 5.431,-2.617 7.812,-2.159 2.955,0.564 4.495,2.793 4.505,2.819 0.105,0.161 0.307,0.19 0.443,0.091 0.161,-0.091 0.196,-0.297 0.095,-0.453 -0.07,-0.091 -1.691,-2.472 -4.912,-3.086 -2.24,-0.444 -4.676,0.125 -7.238,1.62 z m -4.496,2.224 c -0.342,-0.04 -0.599,-0.19 -0.795,-0.467 -0.045,-0.036 -0.242,-0.247 -0.196,-0.574 0.05,-0.307 0.322,-0.805 1.364,-1.429 0.08,-0.056 1.359,-0.946 3.568,0.578 -0.181,0.111 -0.362,0.201 -0.543,0.327 -0.046,0.03 -2.038,1.722 -3.398,1.565 z" id="path306"/>
		</g>
		<g id="g312">
			<path fill="#004ea2" d="m 263.477,223.129 c -2.904,3.414 0.528,6.483 0.574,6.503 3.081,2.315 6.554,-0.699 6.573,-0.735 5.944,-4.449 9.382,-1.293 9.528,-1.147 0.126,0.116 0.332,0.116 0.463,-0.015 0.115,-0.131 0.115,-0.332 -0.011,-0.443 -0.045,-0.051 -3.951,-3.709 -10.388,1.092 -0.136,0.151 -3.116,2.723 -5.768,0.74 -0.106,-0.09 -2.955,-2.663 -0.488,-5.562 0.161,-0.181 4.137,-4.52 9.623,0.327 0.136,0.121 0.337,0.116 0.448,-0.025 0.126,-0.136 0.116,-0.327 -0.02,-0.448 -5.969,-5.294 -10.494,-0.331 -10.534,-0.287 z" id="path310"/>
		</g>
		<g id="g316">
			<path fill="#004ea2" d="m 269.819,217.578 c -0.815,0.589 -1.293,1.767 -1.414,3.448 -0.015,0.181 0.121,0.337 0.292,0.357 0.182,0 0.343,-0.121 0.353,-0.302 0.116,-1.475 0.498,-2.486 1.147,-2.97 0.544,-0.417 1.097,-0.307 1.118,-0.297 0.252,0.06 0.422,0.161 0.498,0.333 0.191,0.362 0.061,0.93 -0.01,1.106 -0.579,2.2 0.125,3.268 0.156,3.322 0.09,0.126 0.297,0.171 0.443,0.08 0.146,-0.1 0.191,-0.297 0.09,-0.452 0,-0.025 -0.563,-0.896 -0.065,-2.764 0,0 0.327,-0.896 -0.035,-1.59 -0.171,-0.343 -0.499,-0.58 -0.941,-0.68 -0.036,0.002 -0.827,-0.18 -1.632,0.409 z" id="path314"/>
		</g>
		<g id="g320">
			<path fill="#004ea2" d="m 257.538,218.167 c -0.433,0.478 -0.443,1.233 -0.035,2.22 l 0.025,0.071 0.031,0.045 c 0.025,0 1.61,1.771 1.671,5.325 0,0.126 0.045,3.151 1.943,4.419 1.057,0.705 2.461,0.725 4.172,0.045 0.156,-0.071 0.247,-0.251 0.181,-0.423 -0.07,-0.166 -0.247,-0.241 -0.417,-0.19 -1.5,0.614 -2.698,0.614 -3.569,0.024 -1.611,-1.086 -1.666,-3.851 -1.666,-3.875 -0.055,-3.579 -1.54,-5.441 -1.787,-5.723 -0.116,-0.307 -0.231,-0.665 -0.231,-0.981 0,-0.207 0.055,-0.388 0.171,-0.529 0.428,-0.473 1.646,-0.292 2.039,-0.176 2.955,1.419 2.255,6.705 2.245,6.749 -0.025,0.181 0.101,0.343 0.272,0.378 0.176,0.03 0.353,-0.101 0.362,-0.287 0.045,-0.221 0.78,-5.798 -2.653,-7.454 -0.238,-0.066 -1.984,-0.499 -2.754,0.362 z" id="path318"/>
		</g>
		<g id="g324">
			<path fill="#004ea2" d="m 273.831,226.664 c 0,0.03 -0.01,3.085 -1.007,6.438 -0.085,0.136 -2.607,4.827 -0.161,7.152 0.136,0.121 0.342,0.102 0.468,-0.015 0.121,-0.132 0.111,-0.348 -0.025,-0.463 -2.074,-1.983 0.282,-6.387 0.307,-6.422 1.067,-3.514 1.072,-6.554 1.072,-6.689 0,-0.176 -0.146,-0.322 -0.327,-0.322 -0.177,-0.002 -0.327,0.144 -0.327,0.321 z" id="path322"/>
		</g>
		<g id="g328">
			<path fill="#004ea2" d="m 270.987,228.037 c -0.171,0.01 -0.317,0.181 -0.292,0.348 0,0.025 0.222,2.405 -0.997,5.411 -0.041,0.045 -2.597,5.864 1.435,8.823 0.136,0.116 0.342,0.076 0.442,-0.07 0.116,-0.136 0.076,-0.337 -0.07,-0.438 -3.599,-2.652 -1.243,-8.013 -1.208,-8.069 1.278,-3.18 1.052,-5.611 1.042,-5.708 -0.01,-0.186 -0.186,-0.307 -0.352,-0.297 z" id="path326"/>
		</g>
		<g id="g332">
			<path fill="#004ea2" d="m 267.815,234.192 c -0.146,0.102 -0.186,0.303 -0.07,0.449 0.091,0.141 0.297,0.187 0.443,0.08 0.397,-0.281 1.259,-0.19 1.565,-0.125 0.181,0.025 0.337,-0.065 0.372,-0.271 0.046,-0.156 -0.07,-0.327 -0.251,-0.363 -0.13,-0.021 -1.359,-0.267 -2.059,0.23 z" id="path330"/>
		</g>
		<g id="g336">
			<path fill="#004ea2" d="m 269.129,237.203 -0.911,0.071 c -0.176,0.02 -0.302,0.166 -0.292,0.337 0.01,0.181 0.161,0.317 0.343,0.317 l 0.906,-0.066 c 0.181,-0.015 0.302,-0.17 0.292,-0.342 -0.006,-0.181 -0.156,-0.327 -0.338,-0.317 z" id="path334"/>
		</g>
		<g id="g340">
			<path fill="#004ea2" d="m 250.793,224.535 -0.056,0.044 -0.045,0.061 c -0.005,0.03 -0.503,0.937 -0.146,1.893 0.262,0.7 0.906,1.249 1.893,1.586 -0.015,0 0.861,0.428 1.747,2.366 0.111,0.181 2.229,3.387 7.409,3.568 -0.01,0 1.847,0.227 2.456,1.203 0.231,0.362 0.262,0.781 0.081,1.269 -0.025,0.15 -0.433,2.426 -2.638,2.809 h -0.035 l -0.045,0.025 c -0.151,0.056 -3.679,1.585 -5.36,4.847 -0.02,0.07 -2.753,5.824 -6.433,7.026 -0.045,0.02 -1.263,0.357 -1.631,1.314 -0.216,0.529 -0.136,1.112 0.247,1.756 0.015,0.046 0.513,0.755 1.484,0.941 0.816,0.167 1.711,-0.08 2.653,-0.729 l 0.634,-0.337 v 0 c 0.136,-0.065 3.498,-1.928 5.924,-7.147 0.021,-0.062 1.022,-2.664 5.351,-4.727 0.02,-0.011 5.039,-1.767 4.288,-7.228 -0.055,-0.181 -1.097,-3.579 -5.858,-3.966 -0.03,0 -4.54,-0.614 -5.32,-3.558 l -0.01,-0.046 -0.025,-0.02 c -0.061,-0.141 -1.732,-3.061 -3.997,-3.559 -0.897,-0.182 -1.763,0.024 -2.568,0.609 z m 2.426,0.024 c 1.993,0.443 3.559,3.191 3.573,3.237 l -0.04,-0.076 c 0.896,3.362 5.693,4.011 5.899,4.037 4.303,0.337 5.239,3.327 5.284,3.453 0.66,4.872 -3.714,6.438 -3.891,6.483 -4.635,2.219 -5.667,4.983 -5.702,5.093 -2.326,4.988 -5.612,6.81 -5.643,6.825 l -0.669,0.357 c -2.189,1.496 -3.231,0.046 -3.262,-0.02 -0.251,-0.433 -0.317,-0.831 -0.191,-1.158 0.271,-0.654 1.218,-0.925 1.233,-0.951 3.951,-1.294 6.72,-7.102 6.835,-7.338 1.545,-3.061 4.993,-4.535 5.018,-4.555 l -0.07,0.02 c 2.672,-0.454 3.161,-3.262 3.161,-3.287 0.09,-0.247 0.136,-0.499 0.136,-0.755 0,-0.353 -0.09,-0.69 -0.297,-1.012 -0.78,-1.243 -2.864,-1.495 -2.954,-1.505 -4.848,-0.171 -6.866,-3.206 -6.886,-3.231 -0.992,-2.16 -2.028,-2.638 -2.079,-2.663 -0.81,-0.282 -1.324,-0.689 -1.515,-1.213 -0.07,-0.176 -0.106,-0.347 -0.106,-0.518 0,-0.398 0.136,-0.68 0.182,-0.745 0.64,-0.458 1.285,-0.623 1.984,-0.478 z" id="path338"/>
		</g>
		<g id="g344">
			<path fill="#004ea2" d="m 256.737,232.039 c -0.187,0.055 -0.267,0.247 -0.206,0.407 0.835,2.437 0.896,4.258 0.191,5.29 -0.589,0.83 -1.485,0.86 -1.53,0.86 -1.435,0.102 -1.711,-1.686 -1.722,-1.776 0.035,-0.322 0.081,-0.422 0.101,-0.468 0.095,0.045 0.201,0.146 0.287,0.271 0.211,0.377 0.765,0.579 0.881,0.604 0.679,0.111 1.167,-0.009 1.485,-0.377 0.619,-0.715 0.292,-1.983 0.262,-2.113 -0.277,-0.851 -0.775,-1.41 -1.439,-1.692 -1.304,-0.544 -2.814,0.191 -2.869,0.207 -3.588,2.602 -1.243,6.17 -1.223,6.216 2.164,3.75 6.81,1.701 6.87,1.676 3.739,-1.722 2.803,-7.298 2.758,-7.52 -0.021,-0.181 -0.191,-0.297 -0.357,-0.271 -0.171,0.021 -0.297,0.202 -0.262,0.373 0,0.055 0.871,5.335 -2.426,6.83 -0.156,0.08 -4.157,1.827 -6.04,-1.425 -0.055,-0.091 -0.689,-1.067 -0.689,-2.31 0,-0.951 0.378,-2.053 1.687,-3.02 0,0 1.293,-0.584 2.315,-0.156 0.488,0.201 0.841,0.634 1.052,1.283 0.081,0.267 0.216,1.118 -0.125,1.505 -0.156,0.181 -0.438,0.241 -0.835,0.181 -0.126,-0.044 -0.423,-0.207 -0.499,-0.336 -0.125,-0.172 -0.523,-0.705 -0.997,-0.589 -0.443,0.121 -0.543,0.719 -0.584,1.163 0.141,0.921 0.785,2.507 2.406,2.391 0.03,0 1.233,-0.025 2.008,-1.132 0.855,-1.224 0.825,-3.182 -0.091,-5.87 -0.061,-0.182 -0.252,-0.262 -0.409,-0.202 z" id="path342"/>
		</g>
		<g id="g348">
			<path fill="#004ea2" d="m 260.98,243.731 c -0.166,0.045 -0.267,0.211 -0.236,0.397 0.045,0.167 0.207,0.283 0.382,0.236 0.136,-0.024 3.403,-0.729 4.208,2.537 0,0.01 0.488,2.763 -0.488,3.966 -0.271,0.338 -0.624,0.514 -1.086,0.528 -0.036,0 -0.76,0.106 -1.107,-0.292 -0.242,-0.281 -0.252,-0.85 -0.015,-1.584 0.282,-0.635 0.473,-2.129 -0.861,-2.96 -0.036,-0.036 -1.415,-1.042 -3.413,0.815 -0.126,0.131 -0.131,0.322 -0.02,0.459 0.136,0.13 0.342,0.13 0.463,0.019 1.565,-1.474 2.557,-0.785 2.607,-0.76 1.213,0.76 0.645,2.154 0.609,2.209 -0.312,1.006 -0.261,1.747 0.146,2.225 0.584,0.674 1.616,0.518 1.671,0.518 0.599,-0.035 1.118,-0.297 1.515,-0.77 1.132,-1.429 0.634,-4.374 0.614,-4.49 -0.977,-3.913 -4.943,-3.053 -4.989,-3.053 z" id="path346"/>
		</g>
		<g id="g352">
			<path fill="#004ea2" d="m 272.28,234.54 c -0.015,0.035 -0.015,0.065 -0.015,0.101 0,0.141 0.09,0.261 0.226,0.307 0.025,0.01 2.552,0.831 3.227,2.925 0.106,0.347 0.176,0.709 0.176,1.097 0,1.213 -0.569,2.577 -1.676,4.077 -0.397,0.322 -2.733,2.174 -2.733,3.865 0,0.116 0.015,0.217 0.036,0.333 0.17,0.81 0.906,1.378 2.199,1.706 0.166,0.096 0.765,0.488 0.825,0.906 0,0.015 0,0.035 0,0.061 0,0.202 -0.136,0.417 -0.417,0.654 -0.035,0.016 -2.537,1.269 -4.329,-0.418 0,0 -1.203,-1.349 -1.067,-3.231 0.101,-1.415 0.896,-2.748 2.38,-4.007 0.041,-0.035 1.903,-1.317 2.109,-3.13 0.101,-0.88 -0.207,-1.742 -0.931,-2.527 -0.126,-0.131 -0.333,-0.146 -0.463,-0.03 -0.131,0.136 -0.136,0.337 -0.025,0.464 0.589,0.644 0.85,1.323 0.77,2.022 -0.171,1.526 -1.847,2.667 -1.857,2.679 -1.651,1.403 -2.527,2.899 -2.627,4.5 -0.151,2.154 1.188,3.653 1.243,3.714 2.154,2.028 5.033,0.553 5.154,0.488 0.539,-0.433 0.76,-0.86 0.705,-1.313 -0.101,-0.85 -1.133,-1.379 -1.258,-1.43 -1.087,-0.297 -1.666,-0.694 -1.777,-1.223 -0.251,-1.203 1.722,-3 2.502,-3.604 l 0.035,-0.025 0.025,-0.045 c 1.616,-2.169 2.159,-4.122 1.616,-5.798 -0.78,-2.401 -3.523,-3.288 -3.644,-3.332 -0.172,-0.048 -0.353,0.043 -0.409,0.214 z" id="path350"/>
		</g>
		<g id="g356">
			<path fill="#004ea2" d="m 285.568,236.468 c -2.97,2.029 -9.247,2.729 -9.312,2.743 -0.171,0.021 -0.307,0.167 -0.287,0.348 0.025,0.181 0.186,0.316 0.352,0.297 0.272,-0.025 6.503,-0.726 9.624,-2.855 0.131,-0.115 0.176,-0.321 0.076,-0.457 -0.1,-0.146 -0.307,-0.176 -0.453,-0.076 z" id="path354"/>
		</g>
		<g id="g360">
			<path fill="#004ea2" d="m 290.611,236.674 c -0.055,0.051 -5.088,5.215 -15.613,5.548 -0.181,0 -0.327,0.15 -0.322,0.327 0,0.186 0.151,0.322 0.333,0.322 10.806,-0.343 15.86,-5.531 16.076,-5.743 0.116,-0.141 0.116,-0.347 -0.01,-0.454 -0.152,-0.14 -0.343,-0.13 -0.464,0 z" id="path358"/>
		</g>
	</g>
	<g id="g372">
		<g id="g366">
			<path fill="#004ea2" d="m 284.381,232.905 c -0.172,0.13 -3.187,2.33 -2.21,5.169 0.056,0.171 0.252,0.262 0.403,0.191 0.176,-0.045 0.262,-0.236 0.206,-0.402 -0.815,-2.391 1.903,-4.374 1.938,-4.398 4.43,-2.15 11.32,2.969 11.385,3.015 0.137,0.11 0.342,0.065 0.458,-0.071 0.101,-0.13 0.066,-0.336 -0.071,-0.452 -0.297,-0.224 -7.273,-5.393 -12.109,-3.052 z" id="path364"/>
		</g>
		<g id="g370">
			<path fill="#004ea2" d="m 285.296,236.558 c -0.136,0.116 -0.17,0.308 -0.071,0.454 0.116,0.146 0.322,0.181 0.459,0.075 3.261,-2.421 8.904,2.109 8.959,2.154 0.136,0.116 0.347,0.091 0.453,-0.045 0.125,-0.136 0.101,-0.337 -0.035,-0.454 -0.262,-0.2 -6.105,-4.896 -9.765,-2.184 z" id="path368"/>
		</g>
	</g>
	<g id="g394">
		<g id="g376">
			<path fill="#004ea2" d="m 293.566,234.505 c -0.021,0.186 0.115,0.336 0.297,0.336 1.787,0.116 1.922,1.073 1.922,1.103 l 0.01,0.056 0.025,0.045 c 0.196,0.443 0.196,0.875 0,1.318 -0.699,1.641 -3.659,2.764 -3.68,2.789 -1.323,0.348 -3.286,1.454 -3.367,1.5 -0.146,0.085 -0.201,0.287 -0.11,0.443 0.075,0.161 0.282,0.207 0.438,0.116 0.015,0 1.963,-1.112 3.241,-1.455 0.161,-0.06 3.261,-1.243 4.067,-3.136 0.262,-0.608 0.262,-1.232 0,-1.821 l 0.02,0.085 c -0.005,-0.061 -0.166,-1.56 -2.532,-1.671 -0.169,-0.021 -0.331,0.111 -0.331,0.292 z" id="path374"/>
		</g>
		<g id="g380">
			<path fill="#004ea2" d="m 298.382,235.064 c -0.166,0.056 -0.271,0.221 -0.216,0.392 0.387,1.385 0.271,2.643 -0.363,3.729 -1.474,2.507 -5.234,3.408 -5.254,3.408 -0.187,0.045 -0.288,0.231 -0.251,0.387 0.045,0.182 0.216,0.297 0.387,0.252 0.166,-0.045 4.052,-0.951 5.678,-3.72 0.735,-1.248 0.871,-2.672 0.413,-4.232 -0.041,-0.172 -0.222,-0.262 -0.394,-0.216 z" id="path378"/>
		</g>
		<g id="g384">
			<path fill="#004ea2" d="m 291.311,232.905 c -0.146,0.086 -0.211,0.276 -0.125,0.448 0.07,0.156 0.261,0.211 0.422,0.136 0.021,-0.015 2.426,-1.183 4.585,0.045 0.161,0.09 0.368,0.03 0.443,-0.116 0.09,-0.161 0.036,-0.362 -0.121,-0.443 -2.471,-1.394 -5.088,-0.121 -5.204,-0.07 z" id="path382"/>
		</g>
		<g id="g388">
			<path fill="#004ea2" d="m 285.93,240.172 c -0.161,0.091 -0.202,0.282 -0.116,0.428 0.046,0.095 1.229,2.034 5.914,2.461 0,0 5.612,1.848 6.121,5.633 0.021,0.135 0.146,1.177 -0.972,1.444 -0.161,0.07 -1.213,0.448 -1.847,-1.073 -0.046,-0.115 -1.259,-3.477 -4.963,-4.057 -0.071,-0.009 -6.015,-0.785 -6.745,-3.684 -0.045,-0.181 -0.227,-0.272 -0.397,-0.226 -0.156,0.045 -0.267,0.216 -0.237,0.387 0.841,3.307 7.026,4.133 7.284,4.172 3.326,0.499 4.414,3.509 4.459,3.644 0.906,2.165 2.627,1.465 2.647,1.449 1.339,-0.316 1.52,-1.549 1.404,-2.153 -0.553,-4.188 -6.368,-6.095 -6.619,-6.156 -4.395,-0.423 -5.481,-2.144 -5.492,-2.16 -0.088,-0.154 -0.295,-0.214 -0.441,-0.109 z" id="path386"/>
		</g>
		<g id="g392">
			<path fill="#004ea2" d="m 285.341,243.912 c -0.136,0.071 -3.07,1.707 -3.433,3.851 -0.136,0.816 0.116,1.595 0.75,2.31 l 0.02,0.036 0.036,0.01 c 0.045,0.02 0.941,0.624 1.913,0.317 0.669,-0.227 1.178,-0.795 1.53,-1.736 -0.01,0.025 1.504,-2.587 2.969,-3.247 0.156,-0.09 0.236,-0.276 0.156,-0.443 -0.066,-0.155 -0.256,-0.226 -0.428,-0.146 -1.646,0.75 -3.207,3.453 -3.287,3.569 -0.297,0.779 -0.665,1.222 -1.148,1.368 -0.584,0.207 -1.172,-0.11 -1.309,-0.181 -0.397,-0.463 -0.604,-0.926 -0.604,-1.424 0,-0.116 0.015,-0.217 0.035,-0.322 0.307,-1.832 3.081,-3.387 3.105,-3.407 0.111,-0.055 0.156,-0.171 0.156,-0.272 0,-0.061 -0.01,-0.115 -0.036,-0.171 -0.082,-0.147 -0.279,-0.217 -0.425,-0.112 z" id="path390"/>
		</g>
	</g>
</g>
<g id="g400" transform="matrix(0.92958228,0,0,0.92958228,-145.65718,-55.715444)">
	<path fill="#004ea2" d="m 252.142,146.403 c -0.277,0.568 -0.076,1.248 0.483,1.53 0.357,0.191 36.844,18.98 75.394,0.17 0.559,-0.246 0.795,-0.951 0.523,-1.505 -0.271,-0.558 -0.967,-0.78 -1.516,-0.513 -37.503,18.271 -73.003,0.051 -73.355,-0.146 -0.552,-0.296 -1.232,-0.075 -1.529,0.464 z" id="path398"/>
</g>
<g id="g404" transform="matrix(0.92958228,0,0,0.92958228,-145.65718,-55.715444)">
	<path fill="#004ea2" d="m 251.84,145.93 -0.579,0.271 -8.612,119.077 1.802,-0.921 c 24.245,-12.538 47.791,-12.064 63.278,-9.438 16.812,2.834 28.052,8.728 28.142,8.773 l 1.816,0.977 -8.275,-117.764 -0.518,-0.308 c -35.68,-20.428 -76.646,-0.885 -77.054,-0.667 z m 75.398,2.366 c 0.092,1.237 7.645,108.769 7.908,112.518 -3.83,-1.766 -13.529,-5.848 -26.949,-8.108 -15.467,-2.633 -38.806,-3.116 -62.996,8.788 0.262,-3.725 8.119,-112.504 8.225,-113.797 4.852,-2.2 41.524,-17.517 73.812,0.599 z" id="path402"/>
</g>
<g id="g408" transform="matrix(0.92958228,0,0,0.92958228,-145.65718,-55.715444)">
	<path fill="#004ea2" d="m 290.631,109.036 c -14.606,-0.191 -15.542,24.884 -15.588,25.951 0,4.35 -2.391,10.832 -2.406,10.888 -0.221,0.589 0.071,1.248 0.66,1.459 0.589,0.217 1.233,-0.08 1.465,-0.664 0.101,-0.287 2.546,-6.926 2.546,-11.652 0.011,-0.192 0.906,-23.959 13.358,-23.723 l 0.126,0.01 0.126,-0.025 c 0.09,-0.02 2.531,-0.428 5.254,1.716 2.879,2.295 6.458,7.897 7.138,21.558 0,0.931 0.216,9.518 3.05,12.482 0.443,0.468 1.141,0.483 1.596,0.045 0.452,-0.428 0.478,-1.143 0.044,-1.585 -1.893,-1.993 -2.4,-8.617 -2.436,-11.013 -0.58,-11.758 -3.282,-19.595 -8.079,-23.334 -3.24,-2.516 -6.254,-2.214 -6.854,-2.113 z" id="path406"/>
</g>
<g id="g412" transform="matrix(0.92958228,0,0,0.92958228,-145.65718,-55.715444)">
	<path fill="#004ea2" d="m 287.461,117.22 c -5.144,5.234 -4.521,27.376 -4.44,29.877 0.021,0.624 0.543,1.123 1.178,1.087 0.619,-0.021 1.107,-0.544 1.088,-1.168 -0.232,-6.548 0.009,-24.361 3.79,-28.207 0.523,-0.528 0.936,-0.594 1.203,-0.584 0.046,0 0.866,0.081 1.873,1.259 1.797,2.154 4.521,8.521 2.391,27.044 -0.07,0.624 0.388,1.192 0.997,1.248 0.624,0.081 1.188,-0.353 1.258,-0.986 2.139,-18.749 -0.514,-26.118 -3.116,-28.992 -1.63,-1.802 -3.216,-1.822 -3.387,-1.822 -1.033,-0.024 -1.985,0.408 -2.835,1.244 z" id="path410"/>
</g>
<g id="g416" transform="matrix(0.92958228,0,0,0.92958228,-145.65718,-55.715444)">
	<path fill="#004ea2" d="m 220.322,179.838 -2.552,-0.553 c 0,0 -0.499,-1.882 0.624,-2.245 0,0 5.597,0.488 7.399,2.798 0,0 0.443,0.806 0.443,2.165 l 0.116,18.9 c 0,0 0,8.586 -1.681,8.768 0,0 -1.55,0.378 -1.249,-5.346 l 0.816,-22.75 c 0,0 0.367,-1.369 -1.913,-1.611 l -1.132,24.93 c 0,0 -0.443,3.921 -2.109,3.851 0,0 -1.243,-0.061 -0.805,-4.047 z" id="path414"/>
</g>
<g id="g420" transform="matrix(0.92958228,0,0,0.92958228,-145.65718,-55.715444)">
	<path fill="#004ea2" d="m 231.581,180.207 c 0,0 -2.059,-0.187 -2.059,1.937 l 0.8,24.039 c 0,0 0.07,3.171 -1.429,3.368 0,0 -1.55,0.307 -1.304,-3.478 l -0.051,-24.321 c 0,0 -0.322,-2.285 2.114,-3.156 0,0 5.461,-2.869 6.393,-0.624 0,0 0.191,1.606 -2.411,1.812 l 1.847,26.218 c 0,0 0.313,2.618 -1.228,2.813 0,0 -1.253,0.429 -1.686,-3.493 z" id="path418"/>
</g>
<g id="g424" transform="matrix(0.92958228,0,0,0.92958228,-145.65718,-55.715444)">
	<path fill="#004ea2" d="m 350.865,179.094 c 0,0 0.89289,-0.22451 1.61838,-0.8848 0.29373,-0.26732 0.59012,-0.5446 0.76514,-0.86701 0.26872,-0.49505 0.714,-1.24211 1.30618,-1.20839 0.56901,0.0324 0.75259,0.85635 1.11517,1.29608 0.0929,0.11271 0.16858,0.24037 0.27165,0.3439 0.28531,0.28659 0.72878,0.6017 0.94865,0.75624 0.42542,0.29901 0.73525,0.50359 1.80083,0.68398 0,0 6.004,1.057 5.943,2.492 0,0 0.268,1.701 -3.588,0.841 0,0 -4.963,-1.178 -6.4,-2.34 -0.14559,-0.10872 -0.2912,-0.11058 -0.4368,-0.006 0,0 -3.1532,1.82731 -6.1572,2.29131 0,0 -3.143,0.841 -3.717,-0.649 0,0 -0.189,-1.178 2.346,-1.776 l 3.07,-0.645 z" id="path422" sodipodi:nodetypes="cssaaascccccccccc"/>
</g>
<g id="g428" transform="matrix(0.92958228,0,0,0.92958228,-145.65718,-55.715444)">
	<path fill="#004ea2" d="m 358.414,184.379 h -7.996 c -2.029,0 -3.676,1.656 -3.676,3.699 v 0.176 c 0,2.043 1.646,3.695 3.676,3.695 h 7.996 c 2.035,0 3.674,-1.651 3.674,-3.695 v -0.176 c 0,-2.043 -1.639,-3.699 -3.674,-3.699 z m -0.791,5.692 h -6.533 c -0.93,0 -1.689,-0.734 -1.689,-1.656 0,-0.926 0.76,-1.675 1.689,-1.675 h 6.533 c 0.934,0 1.688,0.75 1.688,1.675 0,0.921 -0.754,1.656 -1.688,1.656 z" id="path426"/>
</g>
<g id="g432" transform="matrix(0.92958228,0,0,0.92958228,-145.65718,-55.715444)">
	<path fill="#004ea2" d="m 352.959,191.365 0.109,16.792 c 0,0 -0.109,1.877 1.32,1.877 0,0 1.09017,0.0548 1.07529,-2.00332 L 355.827,191.234 Z" id="path430" sodipodi:nodetypes="cccccc"/>
</g>
<g id="g436" transform="matrix(0.92958228,0,0,0.92958228,-145.65718,-55.715444)">
	<path fill="#004ea2" d="m 348.86562,208.22474 c 0,0 -0.066,1.964 -1.178,1.711 0,0 -1.164,0.181 -0.912,-2.809 0,0 0.82138,-15.17874 7.93938,-14.20274 0,0 6.529,-1.097 7.57,15.231 0,0 0.191,1.495 -0.92,1.676 0,0 -1.359,0.272 -1.631,-2.089 0,0 -0.973,-13.178 -5.295,-13.298 0,0 -3.53638,-2.21426 -5.43338,13.00074 z" id="path434" sodipodi:nodetypes="cccccccccc"/>
</g>



</svg>