<svg width="101" height="40" viewBox="0 0 101 40" fill="none" xmlns="http://www.w3.org/2000/svg">
<g clip-path="url(#clip0_51_29)">
<g clip-path="url(#clip1_51_29)">
<path d="M78.2534 3.85777C79.326 3.85777 80.1956 2.98821 80.1956 1.91555C80.1956 0.842891 79.326 -0.0266724 78.2534 -0.0266724C77.1807 -0.0266724 76.3111 0.842891 76.3111 1.91555C76.3111 2.98821 77.1807 3.85777 78.2534 3.85777Z" fill="white" fill-opacity="0.6"/>
<path d="M93.2533 13.1578C95.0415 13.1578 96.4911 11.7082 96.4911 9.92C96.4911 8.13182 95.0415 6.68222 93.2533 6.68222C91.4652 6.68222 90.0156 8.13182 90.0156 9.92C90.0156 11.7082 91.4652 13.1578 93.2533 13.1578Z" fill="white" fill-opacity="0.6"/>
<path d="M78.2534 40.0267C79.326 40.0267 80.1956 39.1571 80.1956 38.0845C80.1956 37.0118 79.326 36.1422 78.2534 36.1422C77.1807 36.1422 76.3111 37.0118 76.3111 38.0845C76.3111 39.1571 77.1807 40.0267 78.2534 40.0267Z" fill="white" fill-opacity="0.6"/>
<path d="M93.2533 33.3178C95.0415 33.3178 96.4911 31.8682 96.4911 30.08C96.4911 28.2918 95.0415 26.8422 93.2533 26.8422C91.4652 26.8422 90.0156 28.2918 90.0156 30.08C90.0156 31.8682 91.4652 33.3178 93.2533 33.3178Z" fill="white" fill-opacity="0.6"/>
<path d="M88.6 4.40888C88.474 4.87879 88.2116 5.3008 87.8458 5.62154C87.48 5.94229 87.0273 6.14737 86.5449 6.21085C86.0626 6.27434 85.5723 6.19338 85.1359 5.97821C84.6996 5.76305 84.3369 5.42333 84.0936 5.00202C83.8503 4.58071 83.7374 4.09673 83.7692 3.61127C83.8009 3.1258 83.9759 2.66066 84.272 2.27464C84.5681 1.88863 84.972 1.59908 85.4327 1.4426C85.8934 1.28613 86.3901 1.26975 86.86 1.39555C87.1722 1.47911 87.4648 1.62334 87.7212 1.82001C87.9776 2.01667 88.1927 2.26193 88.3543 2.54176C88.5158 2.82159 88.6207 3.13051 88.6629 3.45087C88.7051 3.77124 88.6837 4.09678 88.6 4.40888Z" fill="white" fill-opacity="0.6"/>
<path d="M88.6 36.8622C88.474 37.3321 88.2116 37.7541 87.8458 38.0749C87.48 38.3956 87.0273 38.6007 86.5449 38.6642C86.0626 38.7277 85.5723 38.6467 85.1359 38.4316C84.6996 38.2164 84.3369 37.8767 84.0936 37.4554C83.8503 37.0341 83.7374 36.5501 83.7692 36.0646C83.8009 35.5791 83.9759 35.114 84.272 34.728C84.5681 34.342 84.972 34.0524 85.4327 33.8959C85.8934 33.7395 86.3901 33.7231 86.86 33.8489C87.4901 34.0182 88.0272 34.4306 88.3535 34.9956C88.6797 35.5605 88.7684 36.2319 88.6 36.8622Z" fill="white" fill-opacity="0.6"/>
<path d="M99.8745 20.998C100.414 19.0361 99.2618 17.0079 97.2999 16.4678C95.338 15.9278 93.3098 17.0805 92.7698 19.0424C92.2298 21.0043 93.3824 23.0325 95.3443 23.5725C97.3062 24.1125 99.3344 22.9599 99.8745 20.998Z" fill="white" fill-opacity="0.6"/>
<path d="M29.1378 11.9H33.36V28.04H29.1378V11.9ZM31.7045 4.68667C31.2408 4.56275 30.7508 4.5791 30.2964 4.73366C29.842 4.88822 29.4437 5.17405 29.1518 5.555C28.8598 5.93594 28.6874 6.3949 28.6563 6.87383C28.6252 7.35277 28.7369 7.83017 28.9771 8.24566C29.2173 8.66116 29.5753 8.99609 30.0059 9.20811C30.4365 9.42012 30.9203 9.4997 31.3961 9.43677C31.8719 9.37385 32.3183 9.17125 32.679 8.85459C33.0396 8.53793 33.2983 8.12144 33.4222 7.65778C33.5045 7.3499 33.5254 7.02883 33.4836 6.71289C33.4418 6.39695 33.3382 6.09234 33.1787 5.81644C33.0192 5.54055 32.8069 5.29877 32.554 5.10493C32.301 4.91108 32.0123 4.76895 31.7045 4.68667ZM46.2911 28.3689C45.2746 28.3824 44.2666 28.181 43.3334 27.7778C42.4814 27.4114 41.747 26.817 41.2111 26.06V36.08H37.1111V11.9H41.1756V14.1422C41.7129 13.3459 42.443 12.6984 43.2978 12.26C44.2131 11.7912 45.2296 11.5547 46.2578 11.5711C47.263 11.5699 48.2584 11.7678 49.1867 12.1533C50.1199 12.5413 50.9638 13.1161 51.6667 13.8422C52.4046 14.613 52.9877 15.5183 53.3845 16.5089C53.8251 17.6108 54.0434 18.789 54.0267 19.9756C54.0468 21.1688 53.8238 22.3536 53.3711 23.4578C52.9615 24.4392 52.373 25.336 51.6356 26.1022C50.9419 26.8204 50.111 27.3917 49.1921 27.7823C48.2732 28.1728 47.2851 28.3746 46.2867 28.3756L46.2911 28.3689ZM45.4534 24.4822C46.0506 24.486 46.6419 24.3641 47.1889 24.1244C47.7174 23.891 48.1981 23.5618 48.6067 23.1533C49.0174 22.7426 49.3429 22.2547 49.5645 21.7178C50.0207 20.5765 50.0207 19.3035 49.5645 18.1622C49.3429 17.6253 49.0174 17.1374 48.6067 16.7267C48.1981 16.3182 47.7174 15.989 47.1889 15.7556C46.6422 15.5149 46.0507 15.3929 45.4534 15.3978C44.8423 15.3918 44.2367 15.5136 43.6756 15.7556C43.144 15.9845 42.6617 16.3143 42.2556 16.7267C41.8522 17.1449 41.5331 17.6368 41.3156 18.1756C41.0862 18.7354 40.9691 19.335 40.9711 19.94C40.9614 21.1381 41.4227 22.2921 42.2556 23.1533C42.6722 23.5784 43.1699 23.9154 43.7192 24.1444C44.2685 24.3735 44.8582 24.4899 45.4534 24.4867V24.4822ZM57.0089 11.9H61.0734V14.38C61.4055 13.5033 62.0201 12.7622 62.82 12.2733C63.6463 11.8128 64.581 11.5825 65.5267 11.6067C66.0351 11.6036 66.5419 11.6633 67.0356 11.7844C67.4546 11.8846 67.8604 12.0338 68.2445 12.2289L66.7511 16.2933C66.4799 16.1096 66.1793 15.9735 65.8622 15.8911C65.4544 15.7769 65.0324 15.7215 64.6089 15.7267C63.5511 15.7267 62.7037 16.023 62.0667 16.6156C61.4296 17.2082 61.1111 18.177 61.1111 19.5222V28.04H57.0045L57.0089 11.9ZM77.3711 28.3689C76.2118 28.3769 75.0627 28.1502 73.9934 27.7022C72.9829 27.2808 72.0642 26.6664 71.2889 25.8933C70.5089 25.1155 69.8911 24.1904 69.4715 23.1719C69.0518 22.1533 68.8387 21.0616 68.8445 19.96C68.8379 18.8377 69.0563 17.7254 69.4867 16.6889C69.9008 15.6894 70.5105 14.7827 71.28 14.0222C72.0834 13.2351 73.0342 12.614 74.0778 12.1946C75.1214 11.7751 76.2375 11.5655 77.3622 11.5778C78.5163 11.5727 79.6596 11.7994 80.7245 12.2444C81.7386 12.6607 82.6623 13.2697 83.4445 14.0378C84.2291 14.816 84.8511 15.7425 85.2742 16.7635C85.6973 17.7844 85.9131 18.8793 85.9089 19.9844C85.9169 21.1039 85.6937 22.213 85.2534 23.2422C84.8268 24.235 84.2186 25.1394 83.46 25.9089C82.6874 26.6862 81.7671 27.3012 80.7534 27.7178C79.68 28.1587 78.5292 28.3801 77.3689 28.3689H77.3711ZM77.4 24.4533C77.9968 24.4577 78.5877 24.335 79.1334 24.0933C79.6575 23.8649 80.1345 23.5408 80.54 23.1378C80.9438 22.731 81.2633 22.2484 81.48 21.7178C81.7125 21.1542 81.8297 20.5497 81.8245 19.94C81.8265 19.335 81.7094 18.7354 81.48 18.1756C81.265 17.6401 80.9455 17.1528 80.54 16.7422C80.1345 16.3392 79.6575 16.0151 79.1334 15.7867C78.5863 15.5492 77.9964 15.4267 77.4 15.4267C76.8037 15.4267 76.2137 15.5492 75.6667 15.7867C75.1436 16.0157 74.6674 16.3397 74.2622 16.7422C73.8568 17.1528 73.5372 17.6401 73.3222 18.1756C73.0918 18.7351 72.9747 19.3349 72.9778 19.94C72.9715 20.5498 73.0887 21.1545 73.3222 21.7178C73.539 22.2484 73.8584 22.731 74.2622 23.1378C74.6674 23.5403 75.1436 23.8643 75.6667 24.0933C76.2124 24.3316 76.8024 24.4513 77.3978 24.4444L77.4 24.4533ZM1.52588e-05 11.8956H4.18002L7.43557 22.1933L11.2556 11.8956H14.9289L18.6911 22.1933L22.0645 11.8956H26.2445L20.78 28.0178H16.9L13.0467 17.5089L9.16668 28.0178H5.22446L1.52588e-05 11.8956Z" fill="white" fill-opacity="0.6"/>
</g>
</g>
<defs>
<clipPath id="clip0_51_29">
<rect width="101" height="40" fill="white"/>
</clipPath>
<clipPath id="clip1_51_29">
<rect width="100.889" height="40" fill="white"/>
</clipPath>
</defs>
</svg>
