<svg width="500" height="500" viewBox="0 0 500 500" fill="none" xmlns="http://www.w3.org/2000/svg">
<rect width="500" height="500" rx="250" fill="#EAB308"/>
<path d="M167.655 395.426C161.684 393.567 156.95 390.605 153.452 386.54C150.497 382.643 148.525 378.457 147.537 373.982C148.719 370.182 150.819 367.263 153.835 365.225C156.85 363.187 160.849 360.859 165.832 358.242C173.492 354.672 181.303 349.661 189.265 343.209C197.058 337.299 204.393 330.949 211.27 324.158C218.689 317.536 224.516 312.205 228.75 308.165C232.78 302.87 237.147 296.489 241.852 289.023C246.558 281.556 251.516 273.276 256.729 264.181C258.08 259.839 259.263 256.039 260.276 252.782C262.002 249.152 264.288 246.589 267.135 245.093C272.66 242.645 278.83 240.993 285.645 240.137C293.173 238.908 299.077 241.936 303.359 249.223C308.352 256.135 309.267 270.411 306.104 292.052C304.559 304.669 301.18 315.525 295.968 324.62C290.756 333.714 282.425 344.22 270.976 356.137C268.708 359.599 262.694 364.574 252.935 371.062C243.176 377.551 233.67 383.226 224.417 388.086C215.538 393.658 210.285 396.19 208.656 395.684C206.485 395.008 204.416 394.959 202.45 395.538C200.315 396.66 197.824 397.968 194.977 399.464C192.13 400.959 188.535 401.031 184.193 399.68C179.681 398.871 174.169 397.453 167.655 395.426Z" fill="#422006"/>
<path d="M300.684 204.306C288.746 208.286 278.797 210.276 270.838 210.276C262.88 209.707 254.068 206.012 244.404 199.19C233.034 187.82 229.339 176.451 233.318 165.081C237.298 153.143 247.53 141.489 264.016 130.119C275.386 123.297 283.629 119.886 288.746 119.886C294.43 119.318 302.673 121.308 313.475 125.856C332.235 137.794 340.478 151.153 338.204 165.934C336.498 180.146 323.992 192.937 300.684 204.306Z" fill="#FEF08A"/>
</svg>
