<svg width="192" height="192" viewBox="0 0 192 192" fill="none" xmlns="http://www.w3.org/2000/svg">
<rect width="192" height="192" rx="96" fill="#EAB308"/>
<path d="M64.3796 151.843C62.0868 151.13 60.2688 149.993 58.9257 148.431C57.791 146.935 57.0338 145.328 56.6542 143.609C57.1083 142.15 57.9144 141.029 59.0725 140.246C60.2306 139.464 61.7662 138.57 63.6794 137.565C66.6209 136.194 69.6204 134.27 72.6779 131.792C75.6704 129.523 78.487 127.084 81.1276 124.477C83.9766 121.934 86.2141 119.887 87.8401 118.335C89.3875 116.302 91.0645 113.852 92.8714 110.985C94.6782 108.118 96.5823 104.938 98.5838 101.446C99.1028 99.7781 99.5569 98.319 99.9461 97.0684C100.609 95.6742 101.487 94.69 102.58 94.1158C104.701 93.1757 107.071 92.5413 109.688 92.2127C112.578 91.7406 114.846 92.9035 116.49 95.7015C118.407 98.3559 118.759 103.838 117.544 112.148C116.951 116.993 115.653 121.162 113.652 124.654C111.65 128.146 108.451 132.181 104.055 136.757C103.184 138.086 100.875 139.996 97.1271 142.488C93.3795 144.98 89.7292 147.159 86.1762 149.025C82.7667 151.165 80.7493 152.137 80.124 151.942C79.2903 151.683 78.4959 151.664 77.7408 151.887C76.9209 152.317 75.9643 152.82 74.8711 153.394C73.7778 153.968 72.3975 153.996 70.73 153.477C68.9976 153.166 66.8808 152.622 64.3796 151.843Z" fill="#422006"/>
<path d="M115.463 78.4537C110.878 79.9818 107.058 80.7458 104.002 80.7458C100.946 80.5275 97.5621 79.1086 93.8511 76.489C89.4851 72.123 88.0662 67.7571 89.5943 63.3911C91.1223 58.8068 95.0517 54.3317 101.382 49.9658C105.748 47.3462 108.914 46.0364 110.878 46.0364C113.061 45.8181 116.227 46.5821 120.374 48.3285C127.578 52.9128 130.743 58.0428 129.87 63.7186C129.215 69.176 124.413 74.0877 115.463 78.4537Z" fill="#422006"/>
</svg>
